<?xml version="1.0" encoding="utf-8"?>
<!-- Generator: Adobe Adobe Illustrator 24.2.0, SVG Export Plug-In . SVG Version: 6.00 Build 0)  -->
<svg version="1.1" id="Layer_1" xmlns="http://www.w3.org/2000/svg" xmlns:xlink="http://www.w3.org/1999/xlink" x="0px" y="0px"
	 width="1000px" height="100px" viewBox="0 0 1000 100" style="enable-background:new 0 0 1000 100;" xml:space="preserve">
<g>
	<path d="M24.72,7.7L13.3,36.09c-0.13,0.31-0.3,0.55-0.52,0.71c-0.22,0.16-0.47,0.23-0.75,0.23c-0.44,0-0.77-0.12-0.99-0.35
		c-0.22-0.23-0.34-0.52-0.38-0.87c-0.03-0.16-0.02-0.34,0.05-0.56L23.13,4.88c0.16-0.34,0.35-0.59,0.59-0.73
		c0.24-0.14,0.51-0.21,0.82-0.21c0.31,0,0.59,0.09,0.82,0.26c0.24,0.17,0.42,0.4,0.54,0.68l12.36,30.22
		c0.06,0.19,0.09,0.38,0.09,0.56c0,0.44-0.14,0.78-0.42,1.01c-0.28,0.24-0.61,0.35-0.99,0.35c-0.31,0-0.59-0.09-0.82-0.26
		c-0.23-0.17-0.42-0.4-0.54-0.68L23.88,7.52L24.72,7.7z M16.03,27.49l1.17-2.77h14.57l0.56,2.77H16.03z"/>
	<path d="M58,4.09c2.63,0,4.69,0.71,6.18,2.14c1.49,1.43,2.23,3.41,2.23,5.95c0,1.32-0.28,2.57-0.85,3.76
		c-0.56,1.19-1.39,2.15-2.49,2.89c-1.1,0.74-2.46,1.15-4.09,1.25l-0.19-0.94c1.16,0,2.29,0.16,3.41,0.49
		c1.11,0.33,2.11,0.85,2.98,1.57c0.88,0.72,1.58,1.62,2.11,2.7c0.53,1.08,0.8,2.39,0.8,3.92c0,1.63-0.27,3.03-0.82,4.21
		c-0.55,1.17-1.29,2.12-2.21,2.84c-0.92,0.72-1.98,1.25-3.17,1.6c-1.19,0.35-2.43,0.52-3.71,0.52H45.54c-0.38,0-0.71-0.14-0.99-0.42
		c-0.28-0.28-0.42-0.61-0.42-0.99V5.5c0-0.38,0.14-0.7,0.42-0.99c0.28-0.28,0.61-0.42,0.99-0.42H58z M57.62,6.86H46.58l0.56-0.85
		v13.3l-0.52-0.71h11c1.63-0.03,3-0.56,4.11-1.6c1.11-1.03,1.67-2.57,1.67-4.61c0-1.72-0.5-3.08-1.5-4.07
		C60.9,7.35,59.47,6.86,57.62,6.86z M57.95,21.43H46.91l0.23-0.28v13.49l-0.28-0.42h11.19c2,0,3.68-0.51,5.03-1.53
		c1.35-1.02,2.02-2.64,2.02-4.86c0-1.57-0.33-2.82-0.99-3.76c-0.66-0.94-1.54-1.61-2.63-2.02C60.38,21.63,59.21,21.43,57.95,21.43z"
		/>
	<path d="M98.75,6.53c0.38,0.25,0.59,0.57,0.66,0.96c0.06,0.39-0.03,0.78-0.28,1.15c-0.22,0.28-0.5,0.44-0.85,0.47
		c-0.35,0.03-0.67-0.03-0.99-0.19c-1.19-0.78-2.47-1.39-3.83-1.83c-1.36-0.44-2.83-0.66-4.39-0.66c-1.91,0-3.69,0.34-5.33,1.01
		c-1.65,0.67-3.08,1.65-4.3,2.91c-1.22,1.27-2.17,2.77-2.84,4.49c-0.67,1.72-1.01,3.62-1.01,5.69c0,2.13,0.34,4.07,1.03,5.8
		c0.69,1.74,1.65,3.24,2.89,4.49c1.24,1.25,2.67,2.21,4.3,2.87c1.63,0.66,3.38,0.99,5.26,0.99c1.54,0,2.98-0.22,4.35-0.66
		c1.36-0.44,2.64-1.03,3.83-1.79c0.31-0.19,0.65-0.26,1.01-0.21c0.36,0.05,0.65,0.23,0.87,0.54c0.28,0.35,0.38,0.71,0.31,1.1
		c-0.08,0.39-0.29,0.7-0.63,0.92c-0.78,0.5-1.71,0.97-2.77,1.41c-1.07,0.44-2.19,0.79-3.38,1.06c-1.19,0.27-2.38,0.4-3.57,0.4
		c-2.26,0-4.37-0.41-6.34-1.22c-1.97-0.81-3.73-1.97-5.26-3.45c-1.54-1.49-2.73-3.27-3.6-5.33s-1.29-4.37-1.29-6.91
		c0-2.44,0.42-4.69,1.27-6.74c0.85-2.05,2.02-3.83,3.52-5.33c1.5-1.5,3.26-2.68,5.26-3.53c2-0.85,4.15-1.27,6.44-1.27
		c1.79,0,3.51,0.25,5.17,0.75C95.9,4.92,97.4,5.62,98.75,6.53z"/>
	<path d="M118.82,4.09c2.32,0,4.35,0.44,6.09,1.32c1.74,0.88,3.17,2.09,4.3,3.64c1.13,1.55,1.97,3.31,2.51,5.29
		c0.55,1.97,0.82,4.04,0.82,6.2c0,3.01-0.49,5.76-1.48,8.25c-0.99,2.49-2.49,4.48-4.51,5.97c-2.02,1.49-4.6,2.23-7.73,2.23h-11.98
		c-0.38,0-0.71-0.14-0.99-0.42c-0.28-0.28-0.42-0.61-0.42-0.99V5.5c0-0.38,0.14-0.7,0.42-0.99c0.28-0.28,0.61-0.42,0.99-0.42H118.82
		z M118.35,34.21c2.66,0,4.81-0.61,6.44-1.83c1.63-1.22,2.83-2.87,3.6-4.96c0.77-2.08,1.15-4.38,1.15-6.89
		c0-1.82-0.21-3.55-0.63-5.19s-1.08-3.1-1.97-4.37s-2.05-2.27-3.48-3.01c-1.43-0.74-3.13-1.1-5.1-1.1h-10.29l0.33-0.42v28.25
		l-0.28-0.47H118.35z"/>
	<path d="M140.62,4.09h17.25c0.38,0,0.71,0.13,0.99,0.4c0.28,0.27,0.42,0.6,0.42,1.01c0,0.41-0.14,0.74-0.42,0.99
		c-0.28,0.25-0.61,0.38-0.99,0.38h-16.17l0.47-0.8v13.21l-0.52-0.61h14.1c0.38,0,0.71,0.14,0.99,0.42c0.28,0.28,0.42,0.61,0.42,0.99
		c0,0.41-0.14,0.74-0.42,0.99c-0.28,0.25-0.61,0.38-0.99,0.38h-14.01l0.42-0.47v13.54l-0.23-0.28h15.93c0.38,0,0.71,0.14,0.99,0.42
		c0.28,0.28,0.42,0.61,0.42,0.99c0,0.41-0.14,0.74-0.42,0.99c-0.28,0.25-0.61,0.38-0.99,0.38h-17.25c-0.38,0-0.71-0.14-0.99-0.42
		c-0.28-0.28-0.42-0.61-0.42-0.99V5.5c0-0.38,0.14-0.7,0.42-0.99C139.92,4.23,140.25,4.09,140.62,4.09z"/>
	<path d="M167.37,36.99c-0.44,0-0.79-0.14-1.06-0.42c-0.27-0.28-0.4-0.61-0.4-0.99V5.5c0-0.38,0.14-0.7,0.42-0.99
		c0.28-0.28,0.61-0.42,0.99-0.42h17.11c0.41,0,0.74,0.13,1.01,0.4c0.27,0.27,0.4,0.6,0.4,1.01c0,0.38-0.13,0.7-0.4,0.96
		c-0.27,0.27-0.6,0.4-1.01,0.4h-15.84l0.19-0.28v12.5l-0.24-0.42h13.77c0.41,0,0.74,0.13,1.01,0.4c0.27,0.27,0.4,0.59,0.4,0.96
		c0,0.41-0.13,0.74-0.4,0.99c-0.27,0.25-0.6,0.38-1.01,0.38h-13.86l0.33-0.38v14.57c0,0.38-0.13,0.71-0.4,0.99
		C168.11,36.84,167.77,36.99,167.37,36.99z"/>
	<path d="M206.85,37.46c-2.41,0-4.65-0.42-6.72-1.27c-2.07-0.85-3.86-2.03-5.38-3.55c-1.52-1.52-2.7-3.31-3.55-5.38
		c-0.85-2.07-1.27-4.31-1.27-6.72c0-2.41,0.42-4.65,1.27-6.72c0.85-2.07,2.03-3.86,3.55-5.38c1.52-1.52,3.31-2.7,5.38-3.55
		c2.07-0.85,4.31-1.27,6.72-1.27c1.66,0,3.27,0.2,4.82,0.59c1.55,0.39,2.94,0.98,4.16,1.76c0.22,0.16,0.38,0.34,0.49,0.54
		c0.11,0.2,0.16,0.42,0.16,0.63c0,0.44-0.14,0.79-0.42,1.06c-0.28,0.27-0.58,0.4-0.89,0.4c-0.16,0-0.31-0.02-0.45-0.07
		c-0.14-0.05-0.27-0.1-0.4-0.16c-1.07-0.59-2.23-1.06-3.48-1.41c-1.25-0.34-2.58-0.52-4-0.52c-2.69,0-5.09,0.61-7.19,1.83
		c-2.1,1.22-3.74,2.9-4.94,5.03c-1.19,2.13-1.79,4.54-1.79,7.24c0,2.7,0.59,5.11,1.79,7.24c1.19,2.13,2.84,3.81,4.94,5.03
		c2.1,1.22,4.5,1.83,7.19,1.83c1.41,0,2.83-0.2,4.25-0.61c1.43-0.41,2.66-0.96,3.69-1.65l-0.24,0.99V22.56l0.71,0.66h-8.13
		c-0.41,0-0.75-0.14-1.03-0.42c-0.28-0.28-0.42-0.61-0.42-0.99c0-0.44,0.14-0.78,0.42-1.03c0.28-0.25,0.63-0.38,1.03-0.38h8.98
		c0.41,0,0.74,0.13,1.01,0.4c0.27,0.27,0.4,0.6,0.4,1.01v11.33c0,0.25-0.06,0.49-0.19,0.71c-0.13,0.22-0.3,0.41-0.52,0.56
		c-1.38,0.94-2.92,1.68-4.63,2.23C210.47,37.18,208.7,37.46,206.85,37.46z"/>
	<path d="M226.26,4.09c0.38,0,0.71,0.14,1.01,0.42c0.3,0.28,0.45,0.63,0.45,1.03v29.99c-0.03,0.41-0.2,0.75-0.49,1.03
		c-0.3,0.28-0.63,0.42-1.01,0.42c-0.44,0-0.79-0.14-1.06-0.42c-0.27-0.28-0.4-0.63-0.4-1.03V5.54c0-0.41,0.14-0.75,0.42-1.03
		C225.46,4.23,225.82,4.09,226.26,4.09z M226.02,18.8h22.33l-0.05,2.73h-22.47L226.02,18.8z M248.3,4.09c0.44,0,0.79,0.14,1.06,0.42
		c0.27,0.28,0.4,0.63,0.4,1.03v29.99c-0.03,0.41-0.18,0.75-0.45,1.03c-0.27,0.28-0.62,0.42-1.06,0.42c-0.41,0-0.75-0.14-1.03-0.42
		c-0.28-0.28-0.42-0.63-0.42-1.03V5.54c0-0.41,0.15-0.75,0.45-1.03C247.54,4.23,247.89,4.09,248.3,4.09z"/>
	<path d="M261.55,35.53c-0.03,0.41-0.2,0.75-0.49,1.03c-0.3,0.28-0.63,0.42-1.01,0.42c-0.44,0-0.79-0.14-1.06-0.42
		c-0.27-0.28-0.4-0.63-0.4-1.03V5.54c0-0.41,0.14-0.75,0.42-1.03c0.28-0.28,0.64-0.42,1.08-0.42c0.38,0,0.71,0.14,1.01,0.42
		c0.3,0.28,0.45,0.63,0.45,1.03V35.53z"/>
	<path d="M278.15,37.46c-1.97,0-3.74-0.55-5.31-1.65c-1.57-1.1-2.76-2.54-3.57-4.32c-0.16-0.28-0.23-0.53-0.23-0.75
		c0-0.41,0.16-0.73,0.47-0.96c0.31-0.24,0.63-0.35,0.94-0.35c0.31,0,0.57,0.08,0.78,0.23c0.2,0.16,0.38,0.35,0.54,0.56
		c0.59,1.32,1.46,2.38,2.58,3.2c1.13,0.81,2.4,1.22,3.81,1.22c1.44,0,2.71-0.31,3.81-0.92c1.1-0.61,1.95-1.46,2.56-2.56
		c0.61-1.1,0.92-2.35,0.92-3.76V5.5c0-0.38,0.15-0.7,0.45-0.99c0.3-0.28,0.65-0.42,1.06-0.42c0.44,0,0.79,0.14,1.06,0.42
		c0.27,0.28,0.4,0.61,0.4,0.99v21.9c0,1.94-0.44,3.67-1.32,5.19c-0.88,1.52-2.08,2.71-3.62,3.57
		C281.92,37.02,280.15,37.46,278.15,37.46z"/>
	<path d="M298.68,36.99c-0.44,0-0.79-0.14-1.06-0.42c-0.27-0.28-0.4-0.63-0.4-1.03V5.54c0-0.41,0.14-0.75,0.42-1.03
		c0.28-0.28,0.64-0.42,1.08-0.42c0.41,0,0.75,0.14,1.03,0.42c0.28,0.28,0.42,0.63,0.42,1.03v29.99c-0.03,0.41-0.19,0.75-0.47,1.03
		C299.44,36.84,299.09,36.99,298.68,36.99z M320.21,4.18c0.38,0,0.7,0.14,0.96,0.42c0.27,0.28,0.4,0.6,0.4,0.94
		c0,0.38-0.14,0.71-0.42,0.99L299.81,26.5l-0.38-3.2l19.74-18.66C319.49,4.34,319.83,4.18,320.21,4.18z M320.73,37.17
		c-0.41,0-0.75-0.17-1.03-0.52l-13.35-16.78l2.21-2.21L322,34.68c0.22,0.31,0.33,0.64,0.33,0.99c0,0.5-0.18,0.88-0.54,1.13
		C321.42,37.05,321.07,37.17,320.73,37.17z"/>
	<path d="M347.14,34.21c0.38,0,0.71,0.13,0.99,0.4c0.28,0.27,0.42,0.59,0.42,0.96c0,0.41-0.14,0.74-0.42,1.01
		c-0.28,0.27-0.61,0.4-0.99,0.4h-16.78c-0.41,0-0.74-0.14-1.01-0.42c-0.27-0.28-0.4-0.61-0.4-0.99V5.5c0-0.38,0.14-0.7,0.42-0.99
		c0.28-0.28,0.64-0.42,1.08-0.42c0.38,0,0.71,0.14,1.01,0.42c0.3,0.28,0.45,0.61,0.45,0.99v29.52l-0.89-0.8H347.14z"/>
	<path d="M355.37,4.09c0.22,0,0.45,0.05,0.68,0.14c0.24,0.09,0.43,0.25,0.59,0.47l12.97,19.46l-1.27-0.05L381.36,4.7
		c0.34-0.47,0.77-0.67,1.27-0.61c0.38,0,0.7,0.13,0.96,0.4c0.27,0.27,0.4,0.6,0.4,1.01v30.08c0,0.38-0.14,0.71-0.42,0.99
		c-0.28,0.28-0.63,0.42-1.03,0.42c-0.44,0-0.8-0.14-1.08-0.42c-0.28-0.28-0.42-0.61-0.42-0.99V8.36l0.85,0.09l-11.89,18
		c-0.09,0.19-0.23,0.34-0.42,0.45c-0.19,0.11-0.41,0.15-0.66,0.12c-0.22,0.03-0.43-0.01-0.63-0.12c-0.2-0.11-0.37-0.26-0.49-0.45
		L355.84,8.27l0.89-0.61v27.92c0,0.38-0.13,0.71-0.4,0.99c-0.27,0.28-0.6,0.42-1.01,0.42s-0.74-0.14-0.99-0.42
		c-0.25-0.28-0.38-0.61-0.38-0.99V5.5c0-0.38,0.13-0.7,0.4-0.99C354.62,4.23,354.96,4.09,355.37,4.09z"/>
	<path d="M416.89,4.09c0.41,0,0.73,0.13,0.96,0.38c0.24,0.25,0.35,0.56,0.35,0.94v30.08c0,0.47-0.15,0.84-0.45,1.1
		c-0.3,0.27-0.63,0.4-1.01,0.4c-0.19,0-0.39-0.04-0.61-0.12c-0.22-0.08-0.39-0.2-0.52-0.35L394.66,8.27l0.8-0.42v27.87
		c0,0.35-0.13,0.64-0.38,0.89c-0.25,0.25-0.56,0.38-0.94,0.38c-0.41,0-0.73-0.12-0.96-0.38c-0.23-0.25-0.35-0.55-0.35-0.89V5.5
		c0-0.47,0.14-0.82,0.42-1.06c0.28-0.24,0.6-0.35,0.94-0.35c0.19,0,0.39,0.04,0.61,0.12c0.22,0.08,0.39,0.21,0.52,0.4l20.73,27.92
		l-0.47,0.85V5.4c0-0.38,0.13-0.69,0.4-0.94C416.24,4.21,416.54,4.09,416.89,4.09z"/>
	<path d="M456.37,20.54c0,2.48-0.38,4.74-1.15,6.79c-0.77,2.05-1.86,3.84-3.27,5.36c-1.41,1.52-3.08,2.69-5.01,3.52
		c-1.93,0.83-4.03,1.25-6.32,1.25c-2.29,0-4.39-0.42-6.32-1.25c-1.93-0.83-3.6-2-5.01-3.52c-1.41-1.52-2.5-3.31-3.27-5.36
		c-0.77-2.05-1.15-4.32-1.15-6.79c0-2.47,0.38-4.74,1.15-6.79c0.77-2.05,1.86-3.84,3.27-5.36c1.41-1.52,3.08-2.69,5.01-3.52
		c1.93-0.83,4.03-1.25,6.32-1.25c2.29,0,4.39,0.42,6.32,1.25c1.93,0.83,3.6,2.01,5.01,3.52c1.41,1.52,2.5,3.31,3.27,5.36
		C455.98,15.8,456.37,18.06,456.37,20.54z M453.36,20.54c0-2.79-0.54-5.24-1.62-7.36c-1.08-2.11-2.58-3.77-4.49-4.96
		c-1.91-1.19-4.12-1.79-6.63-1.79c-2.48,0-4.68,0.6-6.6,1.79c-1.93,1.19-3.43,2.84-4.51,4.96c-1.08,2.12-1.62,4.57-1.62,7.36
		c0,2.79,0.54,5.24,1.62,7.36c1.08,2.12,2.58,3.77,4.51,4.96c1.93,1.19,4.13,1.79,6.6,1.79c2.51,0,4.72-0.59,6.63-1.79
		c1.91-1.19,3.41-2.84,4.49-4.96C452.82,25.78,453.36,23.32,453.36,20.54z"/>
	<path d="M475.59,4.09c1.75,0,3.31,0.4,4.65,1.2c1.35,0.8,2.41,1.9,3.2,3.31c0.78,1.41,1.18,3.02,1.18,4.84
		c0,1.82-0.39,3.45-1.18,4.91c-0.78,1.46-1.85,2.61-3.2,3.45c-1.35,0.85-2.9,1.27-4.65,1.27h-9.96l0.23-0.47v12.97
		c0,0.38-0.14,0.71-0.42,0.99c-0.28,0.28-0.61,0.42-0.99,0.42c-0.44,0-0.78-0.14-1.03-0.42c-0.25-0.28-0.38-0.61-0.38-0.99V5.5
		c0-0.38,0.14-0.7,0.42-0.99c0.28-0.28,0.61-0.42,0.99-0.42H475.59z M475.59,20.35c1.22,0,2.29-0.31,3.2-0.92
		c0.91-0.61,1.62-1.44,2.14-2.49c0.52-1.05,0.78-2.22,0.78-3.5c0-1.28-0.26-2.42-0.78-3.41c-0.52-0.99-1.23-1.76-2.14-2.33
		c-0.91-0.56-1.97-0.85-3.2-0.85h-9.96l0.23-0.42v14.19l-0.28-0.28H475.59z"/>
	<path d="M520.38,20.54c0,2.48-0.38,4.74-1.15,6.79c-0.77,2.05-1.86,3.84-3.27,5.36c-1.41,1.52-3.08,2.69-5.01,3.52
		c-1.93,0.83-4.03,1.25-6.32,1.25s-4.39-0.42-6.32-1.25c-1.93-0.83-3.6-2-5.01-3.52c-1.41-1.52-2.5-3.31-3.27-5.36
		c-0.77-2.05-1.15-4.32-1.15-6.79c0-2.47,0.38-4.74,1.15-6.79c0.77-2.05,1.86-3.84,3.27-5.36c1.41-1.52,3.08-2.69,5.01-3.52
		c1.93-0.83,4.03-1.25,6.32-1.25s4.39,0.42,6.32,1.25c1.93,0.83,3.6,2.01,5.01,3.52c1.41,1.52,2.5,3.31,3.27,5.36
		C520,15.8,520.38,18.06,520.38,20.54z M517.37,20.54c0-2.79-0.54-5.24-1.62-7.36c-1.08-2.11-2.58-3.77-4.49-4.96
		c-1.91-1.19-4.12-1.79-6.63-1.79c-2.48,0-4.68,0.6-6.6,1.79c-1.93,1.19-3.43,2.84-4.51,4.96c-1.08,2.12-1.62,4.57-1.62,7.36
		c0,2.79,0.54,5.24,1.62,7.36c1.08,2.12,2.58,3.77,4.51,4.96c1.93,1.19,4.13,1.79,6.6,1.79c2.51,0,4.72-0.59,6.63-1.79
		c1.91-1.19,3.41-2.84,4.49-4.96C516.83,25.78,517.37,23.32,517.37,20.54z M522.64,39.62c0.34,0,0.64,0.12,0.89,0.35
		c0.25,0.24,0.38,0.54,0.38,0.92c0,0.53-0.28,1.05-0.82,1.55c-0.55,0.5-1.27,0.96-2.16,1.39c-0.89,0.42-1.83,0.75-2.82,0.99
		c-0.99,0.23-1.92,0.35-2.8,0.35c-1.85,0-3.4-0.2-4.65-0.61c-1.25-0.41-2.35-0.88-3.29-1.41c-0.94-0.53-1.9-1-2.87-1.41
		c-0.97-0.41-2.13-0.61-3.48-0.61c-0.56,0-1.06,0.09-1.48,0.28c-0.42,0.19-0.81,0.37-1.17,0.54c-0.36,0.17-0.74,0.26-1.15,0.26
		c-0.38,0-0.7-0.14-0.96-0.42c-0.27-0.28-0.4-0.63-0.4-1.03c0-0.56,0.27-0.96,0.8-1.17l8.08-2.91l4.32,0.14l-7.47,2.54l0.61-0.66
		c1.32,0,2.49,0.19,3.52,0.56s2.03,0.82,2.98,1.34c0.96,0.52,1.97,0.97,3.03,1.36c1.07,0.39,2.29,0.59,3.67,0.59
		c1.22,0,2.23-0.18,3.03-0.54c0.8-0.36,1.45-0.68,1.95-0.96c0.47-0.28,0.87-0.59,1.2-0.92S522.26,39.62,522.64,39.62z"/>
	<path d="M529.07,36.99c-0.47,0-0.85-0.14-1.15-0.42c-0.3-0.28-0.45-0.61-0.45-0.99V5.5c0-0.38,0.14-0.7,0.42-0.99
		c0.28-0.28,0.61-0.42,0.99-0.42h12.69c1.79,0,3.38,0.38,4.79,1.15c1.41,0.77,2.51,1.83,3.31,3.17c0.8,1.35,1.2,2.87,1.2,4.56
		c0,1.38-0.25,2.65-0.75,3.81c-0.5,1.16-1.21,2.14-2.12,2.94c-0.91,0.8-1.93,1.39-3.05,1.76l-1.65-0.52
		c1.16,0.09,2.24,0.46,3.24,1.1c1,0.64,1.81,1.52,2.42,2.63c0.61,1.11,0.93,2.45,0.96,4.02c0.03,1.35,0.1,2.4,0.21,3.15
		c0.11,0.75,0.27,1.32,0.49,1.69c0.22,0.38,0.5,0.67,0.85,0.89c0.31,0.19,0.52,0.45,0.63,0.8c0.11,0.34,0.07,0.67-0.12,0.99
		c-0.13,0.25-0.31,0.43-0.54,0.54c-0.23,0.11-0.48,0.16-0.73,0.16s-0.5-0.06-0.75-0.19c-0.44-0.25-0.89-0.64-1.34-1.18
		c-0.46-0.53-0.83-1.32-1.13-2.35c-0.3-1.03-0.45-2.48-0.45-4.32c0-1.22-0.2-2.22-0.59-3.01c-0.39-0.78-0.89-1.39-1.5-1.81
		c-0.61-0.42-1.29-0.72-2.02-0.89c-0.74-0.17-1.43-0.26-2.09-0.26h-10.95l0.52-0.66v13.3c0,0.38-0.12,0.71-0.38,0.99
		C529.81,36.84,529.48,36.99,529.07,36.99z M529.92,20.35h11.8c1.06-0.09,2.07-0.45,3.01-1.06c0.94-0.61,1.7-1.45,2.28-2.51
		c0.58-1.06,0.87-2.3,0.87-3.71c0-1.79-0.6-3.27-1.81-4.44c-1.21-1.18-2.78-1.76-4.72-1.76h-11.23l0.33-0.66v14.81L529.92,20.35z"/>
	<path d="M568.04,37.46c-2.38,0.03-4.45-0.35-6.2-1.13c-1.75-0.78-3.43-1.96-5.03-3.52c-0.16-0.12-0.29-0.28-0.4-0.47
		c-0.11-0.19-0.16-0.41-0.16-0.66c0-0.38,0.15-0.72,0.45-1.03c0.3-0.31,0.63-0.47,1.01-0.47s0.72,0.16,1.03,0.47
		c1.22,1.32,2.61,2.32,4.16,3.01c1.55,0.69,3.22,1.03,5,1.03c1.5,0,2.84-0.23,4.02-0.7c1.17-0.47,2.11-1.14,2.8-2.02
		c0.69-0.88,1.03-1.9,1.03-3.06c0-1.44-0.39-2.61-1.17-3.5c-0.78-0.89-1.82-1.63-3.1-2.21c-1.29-0.58-2.71-1.1-4.28-1.57
		c-1.29-0.38-2.51-0.81-3.67-1.29c-1.16-0.49-2.19-1.08-3.1-1.79c-0.91-0.71-1.61-1.57-2.12-2.61c-0.5-1.03-0.75-2.29-0.75-3.76
		c0-1.66,0.44-3.13,1.32-4.42c0.88-1.28,2.12-2.29,3.74-3.03c1.61-0.74,3.49-1.1,5.62-1.1c1.85,0,3.63,0.31,5.33,0.94
		c1.71,0.63,3.06,1.55,4.07,2.77c0.47,0.5,0.71,0.96,0.71,1.36c0,0.31-0.16,0.63-0.47,0.94c-0.31,0.31-0.66,0.47-1.03,0.47
		c-0.31,0-0.58-0.11-0.8-0.33c-0.53-0.66-1.21-1.25-2.02-1.76c-0.82-0.52-1.72-0.92-2.7-1.2c-0.99-0.28-2.01-0.42-3.08-0.42
		c-1.47,0-2.8,0.23-3.97,0.68c-1.17,0.45-2.1,1.1-2.77,1.95c-0.67,0.85-1.01,1.86-1.01,3.05c0,1.32,0.38,2.4,1.13,3.24
		s1.74,1.54,2.96,2.09c1.22,0.55,2.52,1.06,3.9,1.53c1.35,0.38,2.64,0.81,3.88,1.29c1.24,0.49,2.33,1.09,3.29,1.81
		c0.96,0.72,1.71,1.63,2.26,2.73c0.55,1.1,0.82,2.48,0.82,4.14c0,1.6-0.46,3.04-1.36,4.32c-0.91,1.29-2.15,2.3-3.74,3.05
		C572.02,37.03,570.17,37.42,568.04,37.46z"/>
	<path d="M583.97,6.76c-0.38,0-0.71-0.12-0.99-0.38c-0.28-0.25-0.42-0.58-0.42-0.99c0-0.38,0.14-0.69,0.42-0.94
		c0.28-0.25,0.61-0.38,0.99-0.38h22.37c0.38,0,0.71,0.13,0.99,0.38c0.28,0.25,0.42,0.58,0.42,0.99c0,0.41-0.14,0.73-0.42,0.96
		c-0.28,0.24-0.61,0.35-0.99,0.35H583.97z M595.16,36.99c-0.44,0-0.79-0.14-1.06-0.42c-0.27-0.28-0.4-0.61-0.4-0.99V5.64h2.91v29.94
		c0,0.38-0.14,0.71-0.42,0.99C595.91,36.84,595.56,36.99,595.16,36.99z"/>
	<path d="M637.03,4.09c0.44,0,0.78,0.13,1.03,0.4c0.25,0.27,0.38,0.6,0.38,1.01v19.46c0,2.32-0.55,4.42-1.64,6.3
		c-1.1,1.88-2.57,3.38-4.42,4.49c-1.85,1.11-3.93,1.67-6.25,1.67c-2.32,0-4.41-0.56-6.27-1.67c-1.87-1.11-3.35-2.61-4.44-4.49
		c-1.1-1.88-1.65-3.98-1.65-6.3V5.5c0-0.41,0.13-0.74,0.4-1.01c0.27-0.27,0.63-0.4,1.1-0.4c0.38,0,0.71,0.13,0.99,0.4
		c0.28,0.27,0.42,0.6,0.42,1.01v19.46c0,1.82,0.43,3.45,1.29,4.89c0.86,1.44,2.01,2.59,3.46,3.45c1.44,0.86,3.01,1.29,4.7,1.29
		c1.75,0,3.35-0.43,4.79-1.29c1.44-0.86,2.59-2.01,3.45-3.45c0.86-1.44,1.29-3.07,1.29-4.89V5.5c0-0.41,0.12-0.74,0.38-1.01
		C636.3,4.22,636.63,4.09,637.03,4.09z"/>
	<path d="M671.06,4.04c0.44,0,0.79,0.13,1.06,0.38c0.27,0.25,0.4,0.56,0.4,0.94c0,0.22-0.05,0.45-0.14,0.71l-12.55,29.99
		c-0.16,0.31-0.36,0.55-0.61,0.71c-0.25,0.16-0.5,0.23-0.75,0.23c-0.28,0-0.55-0.08-0.8-0.23c-0.25-0.16-0.42-0.38-0.52-0.66
		l-12.5-29.94c-0.03-0.09-0.06-0.2-0.09-0.33c-0.03-0.12-0.05-0.27-0.05-0.42c0-0.41,0.15-0.74,0.45-0.99
		c0.3-0.25,0.6-0.38,0.92-0.38c0.66,0,1.13,0.34,1.41,1.03l11.75,28.11h-0.85l11.56-28.2C670.06,4.35,670.5,4.04,671.06,4.04z"/>
	<path d="M707.35,20.54c0,2.48-0.38,4.74-1.15,6.79c-0.77,2.05-1.86,3.84-3.27,5.36c-1.41,1.52-3.08,2.69-5.01,3.52
		c-1.93,0.83-4.03,1.25-6.32,1.25s-4.39-0.42-6.32-1.25c-1.93-0.83-3.6-2-5.01-3.52c-1.41-1.52-2.5-3.31-3.27-5.36
		c-0.77-2.05-1.15-4.32-1.15-6.79c0-2.47,0.38-4.74,1.15-6.79c0.77-2.05,1.86-3.84,3.27-5.36c1.41-1.52,3.08-2.69,5.01-3.52
		c1.93-0.83,4.03-1.25,6.32-1.25s4.39,0.42,6.32,1.25c1.93,0.83,3.6,2.01,5.01,3.52c1.41,1.52,2.5,3.31,3.27,5.36
		C706.96,15.8,707.35,18.06,707.35,20.54z M704.34,20.54c0-2.79-0.54-5.24-1.62-7.36c-1.08-2.11-2.58-3.77-4.49-4.96
		c-1.91-1.19-4.12-1.79-6.63-1.79c-2.48,0-4.68,0.6-6.6,1.79c-1.93,1.19-3.43,2.84-4.51,4.96c-1.08,2.12-1.62,4.57-1.62,7.36
		c0,2.79,0.54,5.24,1.62,7.36c1.08,2.12,2.58,3.77,4.51,4.96c1.93,1.19,4.13,1.79,6.6,1.79c2.51,0,4.72-0.59,6.63-1.79
		c1.91-1.19,3.41-2.84,4.49-4.96C703.8,25.78,704.34,23.32,704.34,20.54z M709.6,39.62c0.34,0,0.64,0.12,0.89,0.35
		c0.25,0.24,0.38,0.54,0.38,0.92c0,0.53-0.28,1.05-0.82,1.55c-0.55,0.5-1.27,0.96-2.16,1.39c-0.89,0.42-1.83,0.75-2.82,0.99
		c-0.99,0.23-1.92,0.35-2.8,0.35c-1.85,0-3.4-0.2-4.65-0.61c-1.25-0.41-2.35-0.88-3.29-1.41c-0.94-0.53-1.9-1-2.87-1.41
		c-0.97-0.41-2.13-0.61-3.48-0.61c-0.56,0-1.06,0.09-1.48,0.28s-0.82,0.37-1.17,0.54c-0.36,0.17-0.75,0.26-1.15,0.26
		c-0.38,0-0.7-0.14-0.96-0.42c-0.27-0.28-0.4-0.63-0.4-1.03c0-0.56,0.27-0.96,0.8-1.17l8.08-2.91l4.32,0.14l-7.47,2.54l0.61-0.66
		c1.32,0,2.49,0.19,3.53,0.56s2.03,0.82,2.98,1.34c0.96,0.52,1.97,0.97,3.03,1.36c1.07,0.39,2.29,0.59,3.67,0.59
		c1.22,0,2.23-0.18,3.03-0.54c0.8-0.36,1.45-0.68,1.95-0.96c0.47-0.28,0.87-0.59,1.2-0.92S709.23,39.62,709.6,39.62z"/>
	<path d="M716.04,36.99c-0.47,0-0.85-0.14-1.15-0.42c-0.3-0.28-0.45-0.61-0.45-0.99V5.5c0-0.38,0.14-0.7,0.42-0.99
		c0.28-0.28,0.61-0.42,0.99-0.42h12.69c1.79,0,3.38,0.38,4.79,1.15c1.41,0.77,2.51,1.83,3.31,3.17c0.8,1.35,1.2,2.87,1.2,4.56
		c0,1.38-0.25,2.65-0.75,3.81c-0.5,1.16-1.21,2.14-2.12,2.94c-0.91,0.8-1.93,1.39-3.05,1.76l-1.65-0.52
		c1.16,0.09,2.24,0.46,3.24,1.1c1,0.64,1.81,1.52,2.42,2.63c0.61,1.11,0.93,2.45,0.96,4.02c0.03,1.35,0.1,2.4,0.21,3.15
		c0.11,0.75,0.27,1.32,0.49,1.69c0.22,0.38,0.5,0.67,0.85,0.89c0.31,0.19,0.52,0.45,0.63,0.8c0.11,0.34,0.07,0.67-0.12,0.99
		c-0.13,0.25-0.31,0.43-0.54,0.54c-0.23,0.11-0.48,0.16-0.73,0.16s-0.5-0.06-0.75-0.19c-0.44-0.25-0.89-0.64-1.34-1.18
		c-0.46-0.53-0.83-1.32-1.13-2.35c-0.3-1.03-0.45-2.48-0.45-4.32c0-1.22-0.2-2.22-0.59-3.01c-0.39-0.78-0.89-1.39-1.5-1.81
		c-0.61-0.42-1.29-0.72-2.02-0.89c-0.74-0.17-1.43-0.26-2.09-0.26h-10.95l0.52-0.66v13.3c0,0.38-0.12,0.71-0.38,0.99
		C716.78,36.84,716.45,36.99,716.04,36.99z M716.89,20.35h11.8c1.06-0.09,2.07-0.45,3.01-1.06c0.94-0.61,1.7-1.45,2.28-2.51
		c0.58-1.06,0.87-2.3,0.87-3.71c0-1.79-0.6-3.27-1.81-4.44c-1.21-1.18-2.78-1.76-4.72-1.76h-11.23l0.33-0.66v14.81L716.89,20.35z"/>
	<path d="M755,37.46c-2.38,0.03-4.45-0.35-6.2-1.13c-1.75-0.78-3.43-1.96-5.03-3.52c-0.16-0.12-0.29-0.28-0.4-0.47
		c-0.11-0.19-0.16-0.41-0.16-0.66c0-0.38,0.15-0.72,0.45-1.03c0.3-0.31,0.63-0.47,1.01-0.47s0.72,0.16,1.03,0.47
		c1.22,1.32,2.61,2.32,4.16,3.01c1.55,0.69,3.22,1.03,5,1.03c1.5,0,2.84-0.23,4.02-0.7c1.17-0.47,2.11-1.14,2.8-2.02
		c0.69-0.88,1.03-1.9,1.03-3.06c0-1.44-0.39-2.61-1.17-3.5c-0.78-0.89-1.82-1.63-3.1-2.21c-1.29-0.58-2.71-1.1-4.28-1.57
		c-1.29-0.38-2.51-0.81-3.67-1.29c-1.16-0.49-2.19-1.08-3.1-1.79c-0.91-0.71-1.61-1.57-2.12-2.61c-0.5-1.03-0.75-2.29-0.75-3.76
		c0-1.66,0.44-3.13,1.32-4.42c0.88-1.28,2.12-2.29,3.74-3.03c1.61-0.74,3.49-1.1,5.62-1.1c1.85,0,3.63,0.31,5.33,0.94
		c1.71,0.63,3.06,1.55,4.07,2.77c0.47,0.5,0.71,0.96,0.71,1.36c0,0.31-0.16,0.63-0.47,0.94c-0.31,0.31-0.66,0.47-1.03,0.47
		c-0.31,0-0.58-0.11-0.8-0.33c-0.53-0.66-1.21-1.25-2.02-1.76c-0.82-0.52-1.72-0.92-2.7-1.2c-0.99-0.28-2.01-0.42-3.08-0.42
		c-1.47,0-2.8,0.23-3.97,0.68c-1.17,0.45-2.1,1.1-2.77,1.95c-0.67,0.85-1.01,1.86-1.01,3.05c0,1.32,0.38,2.4,1.13,3.24
		s1.74,1.54,2.96,2.09c1.22,0.55,2.52,1.06,3.9,1.53c1.35,0.38,2.64,0.81,3.88,1.29c1.24,0.49,2.33,1.09,3.29,1.81
		c0.96,0.72,1.71,1.63,2.26,2.73c0.55,1.1,0.82,2.48,0.82,4.14c0,1.6-0.46,3.04-1.36,4.32c-0.91,1.29-2.15,2.3-3.74,3.05
		C758.99,37.03,757.13,37.42,755,37.46z"/>
	<path d="M770.94,6.76c-0.38,0-0.71-0.12-0.99-0.38c-0.28-0.25-0.42-0.58-0.42-0.99c0-0.38,0.14-0.69,0.42-0.94
		c0.28-0.25,0.61-0.38,0.99-0.38h22.37c0.38,0,0.71,0.13,0.99,0.38c0.28,0.25,0.42,0.58,0.42,0.99c0,0.41-0.14,0.73-0.42,0.96
		c-0.28,0.24-0.61,0.35-0.99,0.35H770.94z M782.12,36.99c-0.44,0-0.79-0.14-1.06-0.42c-0.27-0.28-0.4-0.61-0.4-0.99V5.64h2.91v29.94
		c0,0.38-0.14,0.71-0.42,0.99C782.88,36.84,782.53,36.99,782.12,36.99z"/>
	<path d="M824,4.09c0.44,0,0.78,0.13,1.03,0.4c0.25,0.27,0.38,0.6,0.38,1.01v19.46c0,2.32-0.55,4.42-1.64,6.3
		c-1.1,1.88-2.57,3.38-4.42,4.49c-1.85,1.11-3.93,1.67-6.25,1.67c-2.32,0-4.41-0.56-6.27-1.67c-1.87-1.11-3.35-2.61-4.44-4.49
		c-1.1-1.88-1.65-3.98-1.65-6.3V5.5c0-0.41,0.13-0.74,0.4-1.01c0.27-0.27,0.63-0.4,1.1-0.4c0.38,0,0.71,0.13,0.99,0.4
		c0.28,0.27,0.42,0.6,0.42,1.01v19.46c0,1.82,0.43,3.45,1.29,4.89c0.86,1.44,2.01,2.59,3.46,3.45c1.44,0.86,3.01,1.29,4.7,1.29
		c1.75,0,3.35-0.43,4.79-1.29c1.44-0.86,2.59-2.01,3.45-3.45c0.86-1.44,1.29-3.07,1.29-4.89V5.5c0-0.41,0.12-0.74,0.38-1.01
		C823.26,4.22,823.59,4.09,824,4.09z"/>
	<path d="M858.03,4.04c0.44,0,0.79,0.13,1.06,0.38c0.27,0.25,0.4,0.56,0.4,0.94c0,0.22-0.05,0.45-0.14,0.71l-12.55,29.99
		c-0.16,0.31-0.36,0.55-0.61,0.71c-0.25,0.16-0.5,0.23-0.75,0.23c-0.28,0-0.55-0.08-0.8-0.23c-0.25-0.16-0.42-0.38-0.52-0.66
		l-12.5-29.94c-0.03-0.09-0.06-0.2-0.09-0.33c-0.03-0.12-0.05-0.27-0.05-0.42c0-0.41,0.15-0.74,0.45-0.99
		c0.3-0.25,0.6-0.38,0.92-0.38c0.66,0,1.13,0.34,1.41,1.03L846,33.18h-0.85l11.56-28.2C857.03,4.35,857.46,4.04,858.03,4.04z"/>
	<path d="M903.57,3.99c0.41,0,0.76,0.12,1.06,0.35c0.3,0.23,0.45,0.59,0.45,1.06c0,0.16-0.03,0.36-0.09,0.61l-10.39,30.08
		c-0.09,0.28-0.27,0.5-0.52,0.66c-0.25,0.16-0.5,0.23-0.75,0.23c-0.31,0-0.6-0.07-0.85-0.21c-0.25-0.14-0.44-0.37-0.56-0.68
		l-8.32-20.59l0.38,0.09l-8.32,20.49c-0.13,0.31-0.32,0.54-0.59,0.68c-0.27,0.14-0.54,0.21-0.82,0.21c-0.25,0-0.49-0.08-0.73-0.23
		c-0.24-0.16-0.4-0.38-0.49-0.66L862.63,6.01c-0.09-0.25-0.14-0.44-0.14-0.56c0-0.47,0.17-0.83,0.52-1.08
		c0.34-0.25,0.69-0.38,1.03-0.38c0.31,0,0.59,0.08,0.85,0.24s0.42,0.38,0.52,0.66l9.45,27.54l-0.52,0.05l8.18-20.4
		c0.09-0.28,0.26-0.51,0.49-0.68c0.23-0.17,0.51-0.24,0.82-0.21c0.31-0.03,0.59,0.04,0.82,0.21c0.24,0.17,0.42,0.4,0.54,0.68
		l8.08,20.3l-0.52,0.19l9.4-27.68c0.09-0.28,0.27-0.5,0.52-0.66S903.23,3.99,903.57,3.99z"/>
	<path d="M909.54,3.94c0.5,0,0.89,0.19,1.18,0.56l22.32,30.36c0.22,0.28,0.33,0.56,0.33,0.85c0,0.44-0.16,0.78-0.47,1.03
		c-0.31,0.25-0.64,0.38-0.99,0.38c-0.5,0-0.88-0.19-1.13-0.56L908.41,6.2c-0.22-0.25-0.33-0.53-0.33-0.85
		c0-0.41,0.15-0.74,0.45-1.01C908.83,4.08,909.16,3.94,909.54,3.94z M909.4,37.13c-0.41,0-0.72-0.13-0.94-0.4
		c-0.22-0.27-0.33-0.54-0.33-0.82c0-0.28,0.11-0.59,0.33-0.94l10.81-14.71l1.5,2.35l-10.25,13.91
		C910.24,36.92,909.87,37.13,909.4,37.13z M932.01,3.94c0.38,0,0.7,0.12,0.96,0.35c0.27,0.23,0.4,0.52,0.4,0.87
		c0,0.31-0.11,0.61-0.33,0.89l-10.81,14.71l-1.55-2.3l10.2-13.91C931.19,4.15,931.57,3.94,932.01,3.94z"/>
	<path d="M958.98,3.9c0.41,0,0.74,0.15,1.01,0.45c0.27,0.3,0.4,0.62,0.4,0.96c0,0.16-0.02,0.31-0.07,0.45s-0.12,0.29-0.21,0.45
		l-11.04,15.18l0.56-1.83v16.03c0,0.38-0.14,0.71-0.42,0.99c-0.28,0.28-0.63,0.42-1.03,0.42s-0.75-0.14-1.01-0.42
		c-0.27-0.28-0.4-0.61-0.4-0.99v-15.7l0.24,1.13L936.23,6.29c-0.12-0.16-0.22-0.32-0.28-0.49c-0.06-0.17-0.09-0.34-0.09-0.49
		c0-0.41,0.17-0.74,0.49-1.01c0.33-0.27,0.67-0.4,1.01-0.4c0.47,0,0.86,0.22,1.17,0.66l10.1,13.77l-0.71-0.09l9.82-13.68
		C958.07,4.12,958.48,3.9,958.98,3.9z"/>
	<path d="M987.79,4.09c0.47,0,0.85,0.14,1.13,0.42c0.28,0.28,0.42,0.61,0.42,0.99c0,0.31-0.09,0.6-0.28,0.85l-21.38,28.34
		l-0.09-0.38h20.16c0.38,0,0.71,0.13,0.99,0.38c0.28,0.25,0.42,0.56,0.42,0.94s-0.14,0.7-0.42,0.96c-0.28,0.27-0.61,0.4-0.99,0.4
		h-22.51c-0.44,0-0.79-0.16-1.06-0.47c-0.27-0.31-0.4-0.64-0.4-0.99c0-0.31,0.09-0.59,0.28-0.85l21.29-28.11l0.28,0.19h-19.22
		c-0.41,0-0.74-0.13-1.01-0.4C965.13,6.1,965,5.78,965,5.4s0.13-0.69,0.4-0.94c0.27-0.25,0.6-0.38,1.01-0.38H987.79z"/>
	<path d="M32.71,62.97c0.41,0,0.74,0.14,1.01,0.42c0.27,0.28,0.4,0.63,0.4,1.03v21.15c0,0.38-0.14,0.71-0.42,0.99
		c-0.28,0.28-0.61,0.42-0.99,0.42c-0.41,0-0.74-0.14-1.01-0.42c-0.27-0.28-0.4-0.61-0.4-0.99v-5.59l0.8-0.38
		c0,0.88-0.24,1.77-0.73,2.68c-0.49,0.91-1.15,1.75-2,2.54c-0.85,0.78-1.84,1.42-2.98,1.9c-1.14,0.49-2.37,0.73-3.69,0.73
		c-2.13,0-4.03-0.55-5.71-1.64c-1.68-1.1-2.99-2.6-3.95-4.51c-0.96-1.91-1.43-4.06-1.43-6.44c0-2.44,0.49-4.6,1.46-6.46
		c0.97-1.86,2.29-3.33,3.95-4.39c1.66-1.06,3.54-1.6,5.64-1.6c1.35,0,2.61,0.23,3.78,0.71c1.18,0.47,2.2,1.11,3.08,1.93
		c0.88,0.82,1.56,1.75,2.04,2.8c0.49,1.05,0.73,2.14,0.73,3.27l-0.99-0.7v-5.97c0-0.41,0.13-0.75,0.4-1.03
		C31.97,63.11,32.31,62.97,32.71,62.97z M22.94,84.82c1.66,0,3.13-0.43,4.42-1.29c1.28-0.86,2.29-2.05,3.03-3.57
		c0.74-1.52,1.1-3.22,1.1-5.1c0-1.85-0.37-3.51-1.1-4.98c-0.74-1.47-1.75-2.65-3.03-3.52c-1.29-0.88-2.76-1.32-4.42-1.32
		c-1.63,0-3.09,0.42-4.39,1.27c-1.3,0.85-2.32,2.01-3.05,3.48c-0.74,1.47-1.1,3.17-1.1,5.08c0,1.88,0.37,3.58,1.1,5.1
		c0.74,1.52,1.75,2.71,3.03,3.57C19.8,84.39,21.28,84.82,22.94,84.82z"/>
	<path d="M52.92,62.4c2.13,0,4.02,0.53,5.66,1.6c1.65,1.07,2.95,2.53,3.92,4.39c0.97,1.86,1.46,4.02,1.46,6.46
		c0,2.38-0.49,4.53-1.46,6.44c-0.97,1.91-2.29,3.42-3.95,4.51c-1.66,1.1-3.52,1.64-5.59,1.64c-1.1,0-2.14-0.17-3.13-0.52
		c-0.99-0.34-1.89-0.81-2.7-1.39c-0.81-0.58-1.54-1.26-2.16-2.04c-0.63-0.78-1.13-1.63-1.5-2.54l0.85-0.61v5.31
		c0,0.41-0.13,0.75-0.4,1.01c-0.27,0.27-0.6,0.4-1.01,0.4c-0.41,0-0.74-0.13-1.01-0.4c-0.27-0.27-0.4-0.6-0.4-1.01V53.66
		c0-0.41,0.12-0.74,0.38-1.01c0.25-0.27,0.6-0.4,1.03-0.4c0.41,0,0.74,0.13,1.01,0.4c0.27,0.27,0.4,0.6,0.4,1.01v15.75l-0.66-0.38
		c0.31-0.97,0.78-1.86,1.39-2.66c0.61-0.8,1.32-1.5,2.14-2.09c0.81-0.59,1.71-1.06,2.68-1.39C50.84,62.57,51.86,62.4,52.92,62.4z
		 M52.69,65.04c-1.69,0-3.18,0.42-4.46,1.27c-1.29,0.85-2.3,2.01-3.03,3.48c-0.74,1.47-1.1,3.17-1.1,5.08c0,1.88,0.37,3.58,1.1,5.1
		c0.74,1.52,1.75,2.71,3.03,3.57c1.28,0.86,2.77,1.29,4.46,1.29c1.66,0,3.13-0.44,4.39-1.32c1.27-0.88,2.28-2.08,3.03-3.6
		c0.75-1.52,1.13-3.2,1.13-5.05c0-1.91-0.38-3.6-1.13-5.08s-1.76-2.63-3.03-3.48C55.81,65.46,54.35,65.04,52.69,65.04z"/>
	<path d="M80.56,62.4c1.5,0,2.88,0.16,4.14,0.49c1.25,0.33,2.26,0.78,3.03,1.34c0.77,0.56,1.15,1.17,1.15,1.83
		c0,0.31-0.11,0.62-0.33,0.92c-0.22,0.3-0.52,0.45-0.89,0.45c-0.38,0-0.68-0.09-0.92-0.28c-0.23-0.19-0.47-0.41-0.7-0.66
		c-0.24-0.25-0.57-0.49-1.01-0.71c-0.41-0.19-0.99-0.36-1.74-0.52s-1.61-0.24-2.58-0.24c-1.76,0-3.34,0.44-4.75,1.32
		c-1.41,0.88-2.52,2.06-3.34,3.55c-0.82,1.49-1.22,3.16-1.22,5.01c0,1.88,0.39,3.57,1.17,5.08s1.86,2.69,3.24,3.55
		c1.38,0.86,2.99,1.29,4.84,1.29c1.25,0,2.22-0.11,2.91-0.33c0.69-0.22,1.28-0.47,1.79-0.75c0.59-0.34,1.03-0.68,1.29-1.01
		c0.27-0.33,0.62-0.49,1.06-0.49c0.41,0,0.71,0.12,0.92,0.35c0.2,0.23,0.31,0.54,0.31,0.92c0,0.5-0.37,1.06-1.1,1.67
		c-0.74,0.61-1.75,1.14-3.03,1.6c-1.29,0.45-2.76,0.68-4.42,0.68c-2.35,0-4.41-0.55-6.18-1.64c-1.77-1.1-3.15-2.59-4.14-4.49
		c-0.99-1.9-1.48-4.03-1.48-6.42c0-2.29,0.5-4.37,1.5-6.25c1-1.88,2.4-3.39,4.21-4.54C76.09,62.98,78.18,62.4,80.56,62.4z"/>
	<path d="M114.02,52.21c0.41,0,0.74,0.13,1.01,0.4c0.27,0.27,0.4,0.6,0.4,1.01v31.96c0,0.38-0.14,0.71-0.42,0.99
		c-0.28,0.28-0.61,0.42-0.99,0.42c-0.41,0-0.74-0.14-1.01-0.42c-0.27-0.28-0.4-0.61-0.4-0.99v-5.59l0.8-0.66
		c0,0.88-0.23,1.79-0.71,2.75c-0.47,0.96-1.14,1.84-2,2.66s-1.86,1.47-3.01,1.97c-1.14,0.5-2.37,0.75-3.69,0.75
		c-2.1,0-3.99-0.55-5.66-1.64c-1.68-1.1-3-2.58-3.97-4.47c-0.97-1.88-1.46-4.03-1.46-6.44c0-2.38,0.49-4.52,1.46-6.42
		c0.97-1.9,2.29-3.38,3.95-4.46c1.66-1.08,3.54-1.62,5.64-1.62c1.28,0,2.51,0.23,3.67,0.71c1.16,0.47,2.19,1.11,3.08,1.93
		c0.89,0.82,1.6,1.75,2.12,2.8s0.78,2.14,0.78,3.27l-0.99-0.7V53.62c0-0.38,0.13-0.71,0.4-0.99
		C113.28,52.35,113.62,52.21,114.02,52.21z M104.25,84.82c1.69,0,3.17-0.43,4.44-1.29c1.27-0.86,2.27-2.04,3.01-3.52
		c0.74-1.49,1.1-3.19,1.1-5.1c0-1.88-0.37-3.56-1.1-5.05c-0.74-1.49-1.75-2.66-3.03-3.53c-1.29-0.86-2.76-1.29-4.42-1.29
		c-1.63,0-3.09,0.43-4.39,1.29c-1.3,0.86-2.32,2.04-3.05,3.53c-0.74,1.49-1.1,3.17-1.1,5.05s0.37,3.57,1.1,5.08
		c0.74,1.5,1.75,2.69,3.05,3.55C101.15,84.39,102.62,84.82,104.25,84.82z"/>
	<path d="M133.67,87.46c-2.41,0-4.54-0.52-6.39-1.55c-1.85-1.03-3.29-2.47-4.32-4.32c-1.03-1.85-1.55-4.01-1.55-6.49
		c0-2.66,0.52-4.93,1.57-6.81c1.05-1.88,2.41-3.33,4.09-4.35c1.68-1.02,3.45-1.53,5.33-1.53c1.38,0,2.72,0.24,4.02,0.73
		c1.3,0.49,2.46,1.21,3.48,2.16c1.02,0.96,1.83,2.12,2.44,3.5c0.61,1.38,0.95,2.98,1.01,4.79c-0.03,0.38-0.19,0.7-0.47,0.96
		c-0.28,0.27-0.61,0.4-0.99,0.4h-18.85l-0.56-2.54H141l-0.61,0.56v-0.94c-0.13-1.47-0.6-2.73-1.41-3.76
		c-0.81-1.03-1.8-1.82-2.96-2.35c-1.16-0.53-2.37-0.8-3.62-0.8c-0.94,0-1.9,0.19-2.89,0.56c-0.99,0.38-1.88,0.96-2.68,1.76
		c-0.8,0.8-1.45,1.82-1.95,3.05c-0.5,1.24-0.75,2.7-0.75,4.39c0,1.85,0.38,3.52,1.13,5.03c0.75,1.5,1.84,2.69,3.27,3.57
		c1.43,0.88,3.13,1.32,5.1,1.32c1.1,0,2.08-0.16,2.96-0.47c0.88-0.31,1.65-0.73,2.3-1.25c0.66-0.52,1.21-1.06,1.65-1.62
		c0.34-0.28,0.69-0.42,1.03-0.42c0.31,0,0.59,0.12,0.82,0.38s0.35,0.53,0.35,0.85c0,0.38-0.16,0.71-0.47,0.99
		c-0.94,1.13-2.16,2.11-3.67,2.94C137.1,87.04,135.45,87.46,133.67,87.46z"/>
	<path d="M159.85,63.44c0.38,0,0.69,0.12,0.94,0.38c0.25,0.25,0.38,0.56,0.38,0.94s-0.13,0.69-0.38,0.94
		c-0.25,0.25-0.56,0.38-0.94,0.38h-11.51c-0.35,0-0.65-0.13-0.92-0.4c-0.27-0.27-0.4-0.57-0.4-0.92c0-0.41,0.13-0.73,0.4-0.96
		c0.27-0.24,0.57-0.35,0.92-0.35H159.85z M158.06,52.39c0.47,0,0.98,0.05,1.53,0.14c0.55,0.09,1.03,0.26,1.43,0.49
		c0.41,0.24,0.61,0.59,0.61,1.06c0,0.35-0.13,0.65-0.38,0.92c-0.25,0.27-0.53,0.4-0.85,0.4c-0.31,0-0.7-0.09-1.17-0.26
		c-0.47-0.17-0.97-0.26-1.5-0.26c-0.66,0-1.22,0.15-1.69,0.45c-0.47,0.3-0.83,0.72-1.08,1.27c-0.25,0.55-0.38,1.21-0.38,2v26.98
		c0,0.38-0.13,0.71-0.4,0.99c-0.27,0.28-0.6,0.42-1.01,0.42c-0.41,0-0.74-0.14-1.01-0.42c-0.27-0.28-0.4-0.61-0.4-0.99V58.6
		c0-2,0.59-3.54,1.76-4.61C154.7,52.93,156.21,52.39,158.06,52.39z"/>
	<path d="M176.3,62.4c1.41,0,2.71,0.24,3.9,0.73c1.19,0.49,2.23,1.11,3.13,1.88c0.89,0.77,1.59,1.58,2.09,2.44
		c0.5,0.86,0.75,1.68,0.75,2.47l-0.8-1.13v-4.37c0-0.41,0.13-0.75,0.4-1.03c0.27-0.28,0.6-0.42,1.01-0.42
		c0.44,0,0.78,0.14,1.03,0.42c0.25,0.28,0.38,0.63,0.38,1.03v20.35c0,2.51-0.52,4.62-1.55,6.34c-1.03,1.72-2.44,3.03-4.21,3.92
		c-1.77,0.89-3.78,1.34-6.04,1.34c-1.1,0-2.25-0.14-3.45-0.42c-1.21-0.28-2.24-0.64-3.1-1.08c-0.86-0.44-1.34-0.89-1.43-1.36
		c-0.25-0.28-0.37-0.56-0.35-0.82c0.02-0.27,0.15-0.49,0.4-0.68c0.31-0.22,0.64-0.24,0.99-0.07c0.34,0.17,0.86,0.4,1.55,0.68
		c0.31,0.09,0.74,0.24,1.27,0.42c0.53,0.19,1.17,0.35,1.9,0.49c0.74,0.14,1.51,0.21,2.33,0.21c2.82,0,5.01-0.81,6.56-2.42
		c1.55-1.61,2.33-3.74,2.33-6.37v-4.51l0.52,0.14c-0.28,1.13-0.74,2.12-1.39,2.96c-0.64,0.85-1.4,1.56-2.28,2.14
		c-0.88,0.58-1.83,1.02-2.84,1.32c-1.02,0.3-2.03,0.45-3.03,0.45c-2.16,0-4.1-0.55-5.83-1.64c-1.72-1.1-3.09-2.58-4.11-4.47
		c-1.02-1.88-1.53-4.03-1.53-6.44c0-2.38,0.51-4.52,1.53-6.42c1.02-1.9,2.38-3.38,4.09-4.46C172.2,62.94,174.13,62.4,176.3,62.4z
		 M176.63,65.04c-1.72,0-3.27,0.43-4.63,1.29c-1.36,0.86-2.43,2.04-3.2,3.53c-0.77,1.49-1.15,3.17-1.15,5.05s0.38,3.57,1.15,5.08
		c0.77,1.5,1.83,2.69,3.2,3.55c1.36,0.86,2.91,1.29,4.63,1.29c1.72,0,3.26-0.42,4.61-1.27c1.35-0.85,2.41-2.01,3.2-3.5
		c0.78-1.49,1.17-3.2,1.17-5.15c0-1.94-0.39-3.66-1.17-5.15c-0.78-1.49-1.85-2.65-3.2-3.48C179.88,65.45,178.35,65.04,176.63,65.04z
		"/>
	<path d="M206.56,62.78c1.97,0,3.57,0.42,4.79,1.27c1.22,0.85,2.12,1.99,2.7,3.43c0.58,1.44,0.87,3.04,0.87,4.79v13.3
		c0,0.38-0.14,0.71-0.42,0.99c-0.28,0.28-0.61,0.42-0.99,0.42c-0.44,0-0.78-0.14-1.03-0.42c-0.25-0.28-0.38-0.61-0.38-0.99v-13.3
		c0-1.29-0.2-2.44-0.59-3.48c-0.39-1.03-1.03-1.86-1.9-2.47c-0.88-0.61-2.05-0.92-3.53-0.92c-1.32,0-2.56,0.31-3.74,0.92
		c-1.17,0.61-2.12,1.43-2.84,2.47s-1.08,2.19-1.08,3.48v13.3c0,0.38-0.14,0.71-0.42,0.99c-0.28,0.28-0.61,0.42-0.99,0.42
		c-0.44,0-0.78-0.14-1.03-0.42c-0.25-0.28-0.38-0.61-0.38-0.99V53.62c0-0.38,0.13-0.71,0.4-0.99c0.27-0.28,0.6-0.42,1.01-0.42
		c0.41,0,0.74,0.14,1.01,0.42c0.27,0.28,0.4,0.61,0.4,0.99v15.23l-1.08,1.65c0.06-0.97,0.37-1.92,0.92-2.84
		c0.55-0.92,1.26-1.75,2.14-2.49c0.88-0.74,1.85-1.32,2.91-1.74C204.39,62.99,205.47,62.78,206.56,62.78z"/>
	<path d="M223.62,59.4c-0.66,0-1.15-0.15-1.48-0.45c-0.33-0.3-0.49-0.73-0.49-1.29v-0.47c0-0.56,0.18-1,0.54-1.29
		c0.36-0.3,0.85-0.45,1.48-0.45c0.59,0,1.06,0.15,1.39,0.45c0.33,0.3,0.49,0.73,0.49,1.29v0.47c0,0.56-0.16,1-0.49,1.29
		C224.73,59.25,224.25,59.4,223.62,59.4z M225.03,85.58c0,0.38-0.14,0.71-0.42,0.99c-0.28,0.28-0.61,0.42-0.99,0.42
		c-0.41,0-0.74-0.14-1.01-0.42c-0.27-0.28-0.4-0.61-0.4-0.99V63.96c0-0.38,0.13-0.71,0.4-0.99c0.27-0.28,0.6-0.42,1.01-0.42
		s0.74,0.14,1.01,0.42c0.27,0.28,0.4,0.61,0.4,0.99V85.58z"/>
	<path d="M235.8,89.15c0,1.5-0.35,2.78-1.06,3.83s-1.57,1.86-2.61,2.42c-1.03,0.56-2.07,0.85-3.1,0.85c-0.41,0-0.73-0.13-0.96-0.38
		c-0.23-0.25-0.35-0.55-0.35-0.89v-0.19c0-0.38,0.13-0.67,0.38-0.89c0.25-0.22,0.53-0.36,0.85-0.42c0.72-0.16,1.39-0.42,2-0.8
		c0.61-0.38,1.1-0.89,1.48-1.55c0.38-0.66,0.56-1.46,0.56-2.4V64.47c0-0.38,0.13-0.7,0.4-0.99c0.27-0.28,0.6-0.42,1.01-0.42
		c0.41,0,0.74,0.14,1.01,0.42c0.27,0.28,0.4,0.61,0.4,0.99V89.15z M234.39,59.35c-0.66,0-1.15-0.15-1.48-0.45
		c-0.33-0.3-0.49-0.73-0.49-1.29v-0.47c0-0.56,0.18-0.99,0.54-1.29c0.36-0.3,0.85-0.45,1.48-0.45c0.6,0,1.06,0.15,1.39,0.45
		s0.49,0.73,0.49,1.29v0.47c0,0.56-0.16,1-0.49,1.29C235.49,59.2,235.01,59.35,234.39,59.35z"/>
	<path d="M246.75,86.99c-0.41,0-0.74-0.14-1.01-0.42c-0.27-0.28-0.4-0.61-0.4-0.99V53.62c0-0.38,0.13-0.71,0.4-0.99
		c0.27-0.28,0.6-0.42,1.01-0.42s0.74,0.14,1.01,0.42c0.27,0.28,0.4,0.61,0.4,0.99v31.96c0,0.38-0.13,0.71-0.4,0.99
		C247.49,86.84,247.15,86.99,246.75,86.99z M262.73,62.87c0.34,0,0.66,0.15,0.94,0.45c0.28,0.3,0.42,0.62,0.42,0.96
		c0,0.41-0.17,0.77-0.52,1.08l-15.79,13.44l-0.14-3.34l14.1-12.13C262.02,63.03,262.35,62.87,262.73,62.87z M263.1,86.99
		c-0.41,0-0.75-0.17-1.03-0.52l-10.72-11.37l2.11-1.93l10.62,11.33c0.28,0.31,0.42,0.67,0.42,1.08c0,0.44-0.17,0.78-0.52,1.03
		S263.35,86.99,263.1,86.99z"/>
	<path d="M273.07,85.58c0,0.38-0.14,0.71-0.42,0.99c-0.28,0.28-0.61,0.42-0.99,0.42c-0.41,0-0.74-0.14-1.01-0.42
		c-0.27-0.28-0.4-0.61-0.4-0.99V53.62c0-0.38,0.14-0.71,0.42-0.99c0.28-0.28,0.61-0.42,0.99-0.42c0.41,0,0.74,0.14,1.01,0.42
		c0.27,0.28,0.4,0.61,0.4,0.99V85.58z"/>
	<path d="M291.59,62.78c1.94,0,3.6,0.51,4.98,1.53c1.38,1.02,2.32,2.53,2.82,4.54l-0.66,0.19l0.28-0.85
		c0.41-0.94,1.09-1.83,2.04-2.66c0.96-0.83,2.04-1.5,3.27-2c1.22-0.5,2.46-0.75,3.71-0.75c1.97,0,3.56,0.42,4.77,1.27
		c1.21,0.85,2.08,1.98,2.63,3.41c0.55,1.43,0.82,3.03,0.82,4.82v13.3c0,0.38-0.13,0.71-0.4,0.99c-0.27,0.28-0.6,0.42-1.01,0.42
		c-0.41,0-0.74-0.14-1.01-0.42c-0.27-0.28-0.4-0.61-0.4-0.99V72.42c0-1.28-0.2-2.46-0.61-3.53c-0.41-1.06-1.05-1.91-1.93-2.54
		c-0.88-0.63-2.05-0.94-3.52-0.94c-1.29,0-2.51,0.31-3.69,0.94s-2.13,1.47-2.87,2.54c-0.74,1.07-1.1,2.24-1.1,3.53v13.16
		c0,0.38-0.13,0.71-0.4,0.99c-0.27,0.28-0.6,0.42-1.01,0.42c-0.41,0-0.74-0.14-1.01-0.42c-0.27-0.28-0.4-0.61-0.4-0.99v-13.3
		c0-1.29-0.19-2.44-0.56-3.48s-0.99-1.86-1.83-2.47c-0.85-0.61-1.99-0.92-3.43-0.92c-1.29,0-2.5,0.31-3.64,0.92
		c-1.14,0.61-2.07,1.43-2.77,2.47c-0.7,1.03-1.06,2.19-1.06,3.48v13.3c0,0.38-0.14,0.71-0.42,0.99c-0.28,0.28-0.61,0.42-0.99,0.42
		c-0.44,0-0.78-0.14-1.03-0.42c-0.25-0.28-0.38-0.61-0.38-0.99V64.52c0-0.38,0.13-0.71,0.4-0.99c0.27-0.28,0.6-0.42,1.01-0.42
		c0.41,0,0.74,0.14,1.01,0.42c0.27,0.28,0.4,0.61,0.4,0.99v4.37l-1.27,1.74c0.09-0.94,0.4-1.88,0.92-2.82
		c0.52-0.94,1.2-1.79,2.04-2.54c0.85-0.75,1.81-1.36,2.89-1.81C289.26,63.01,290.39,62.78,291.59,62.78z"/>
	<path d="M334.97,62.4c2.07,0,3.72,0.42,4.96,1.25c1.24,0.83,2.13,1.96,2.68,3.38c0.55,1.43,0.82,3,0.82,4.72v13.82
		c0,0.38-0.14,0.71-0.42,0.99c-0.28,0.28-0.61,0.42-0.99,0.42c-0.44,0-0.78-0.14-1.03-0.42c-0.25-0.28-0.38-0.61-0.38-0.99V71.9
		c0-1.25-0.2-2.4-0.61-3.43c-0.41-1.03-1.07-1.86-2-2.49c-0.92-0.63-2.14-0.94-3.64-0.94c-1.35,0-2.62,0.31-3.83,0.94
		c-1.21,0.63-2.19,1.46-2.94,2.49c-0.75,1.03-1.13,2.18-1.13,3.43v13.68c0,0.38-0.14,0.71-0.42,0.99c-0.28,0.28-0.61,0.42-0.99,0.42
		c-0.44,0-0.78-0.14-1.03-0.42c-0.25-0.28-0.38-0.61-0.38-0.99V64.52c0-0.38,0.13-0.71,0.4-0.99c0.27-0.28,0.6-0.42,1.01-0.42
		c0.41,0,0.74,0.14,1.01,0.42c0.27,0.28,0.4,0.61,0.4,0.99v3.95l-1.08,1.69c0.06-1,0.38-1.97,0.96-2.89
		c0.58-0.92,1.32-1.75,2.23-2.49c0.91-0.74,1.92-1.32,3.03-1.74C332.72,62.62,333.84,62.4,334.97,62.4z"/>
	<path d="M373.18,74.95c0,2.38-0.52,4.52-1.55,6.42c-1.03,1.9-2.44,3.38-4.23,4.47c-1.79,1.08-3.82,1.62-6.11,1.62
		c-2.23,0-4.24-0.54-6.04-1.62s-3.23-2.57-4.28-4.47c-1.05-1.89-1.57-4.03-1.57-6.42c0-2.41,0.52-4.56,1.57-6.44
		c1.05-1.88,2.48-3.37,4.28-4.46c1.8-1.1,3.81-1.64,6.04-1.64c2.29,0,4.32,0.55,6.11,1.64c1.79,1.1,3.2,2.58,4.23,4.46
		C372.66,70.39,373.18,72.54,373.18,74.95z M370.36,74.95c0-1.91-0.39-3.61-1.18-5.1c-0.78-1.49-1.86-2.66-3.22-3.53
		c-1.36-0.86-2.92-1.29-4.68-1.29c-1.69,0-3.23,0.43-4.61,1.29c-1.38,0.86-2.47,2.04-3.27,3.53c-0.8,1.49-1.2,3.19-1.2,5.1
		s0.4,3.6,1.2,5.08c0.8,1.47,1.89,2.64,3.27,3.5c1.38,0.86,2.91,1.29,4.61,1.29c1.75,0,3.31-0.43,4.68-1.29
		c1.36-0.86,2.44-2.03,3.22-3.5S370.36,76.86,370.36,74.95z"/>
	<path d="M390.61,62.78c2.13,0,4.02,0.53,5.66,1.57c1.65,1.05,2.95,2.49,3.92,4.32c0.97,1.83,1.46,3.94,1.46,6.32
		c0,2.38-0.49,4.5-1.46,6.34c-0.97,1.85-2.29,3.31-3.95,4.37c-1.66,1.07-3.52,1.6-5.59,1.6c-1.1,0-2.14-0.17-3.13-0.49
		c-0.99-0.33-1.89-0.78-2.7-1.34c-0.81-0.56-1.54-1.23-2.16-2c-0.63-0.77-1.13-1.61-1.5-2.51l0.85-0.61v14.62
		c0,0.38-0.13,0.7-0.4,0.99c-0.27,0.28-0.6,0.42-1.01,0.42c-0.41,0-0.74-0.14-1.01-0.42c-0.27-0.28-0.4-0.61-0.4-0.99V64.33
		c0-0.41,0.12-0.75,0.38-1.03c0.25-0.28,0.6-0.42,1.03-0.42c0.41,0,0.74,0.14,1.01,0.42c0.27,0.28,0.4,0.63,0.4,1.03v5.08
		l-0.66-0.38c0.31-0.97,0.78-1.84,1.39-2.61c0.61-0.77,1.32-1.43,2.14-1.97c0.81-0.55,1.71-0.96,2.68-1.25
		C388.53,62.92,389.55,62.78,390.61,62.78z M390.38,65.41c-1.69,0-3.18,0.42-4.46,1.25c-1.29,0.83-2.3,1.96-3.03,3.38
		c-0.74,1.43-1.1,3.08-1.1,4.96c0,1.85,0.37,3.51,1.1,4.98c0.74,1.47,1.75,2.62,3.03,3.45c1.28,0.83,2.77,1.25,4.46,1.25
		c1.66,0,3.13-0.41,4.39-1.25c1.27-0.83,2.28-1.98,3.03-3.45s1.13-3.13,1.13-4.98c0-1.85-0.38-3.49-1.13-4.93s-1.76-2.58-3.03-3.41
		C393.5,65.83,392.04,65.41,390.38,65.41z"/>
	<path d="M427.37,62.87c0.41,0,0.74,0.14,1.01,0.42c0.27,0.28,0.4,0.63,0.4,1.03v30.64c0,0.38-0.14,0.7-0.42,0.99
		c-0.28,0.28-0.61,0.42-0.99,0.42c-0.41,0-0.74-0.14-1.01-0.42c-0.27-0.28-0.4-0.61-0.4-0.99V79.98l0.8-0.66
		c0,0.88-0.23,1.79-0.71,2.75c-0.47,0.96-1.14,1.84-2,2.66s-1.86,1.47-3.01,1.97c-1.14,0.5-2.37,0.75-3.69,0.75
		c-2.1,0-3.99-0.55-5.66-1.64c-1.68-1.1-3-2.58-3.97-4.47c-0.97-1.88-1.46-4.03-1.46-6.44c0-2.38,0.49-4.52,1.46-6.42
		c0.97-1.9,2.29-3.38,3.95-4.46c1.66-1.08,3.54-1.62,5.64-1.62c1.28,0,2.51,0.23,3.67,0.71c1.16,0.47,2.19,1.11,3.08,1.93
		c0.89,0.82,1.6,1.75,2.12,2.8s0.78,2.14,0.78,3.27l-0.99-0.7v-6.06c0-0.41,0.13-0.75,0.4-1.03
		C426.62,63.01,426.96,62.87,427.37,62.87z M417.59,84.82c1.69,0,3.17-0.43,4.44-1.29c1.27-0.86,2.27-2.04,3.01-3.52
		c0.74-1.49,1.1-3.19,1.1-5.1c0-1.88-0.37-3.56-1.1-5.05c-0.74-1.49-1.75-2.66-3.03-3.53c-1.29-0.86-2.76-1.29-4.42-1.29
		c-1.63,0-3.09,0.43-4.39,1.29c-1.3,0.86-2.32,2.04-3.05,3.53c-0.74,1.49-1.1,3.17-1.1,5.05s0.37,3.57,1.1,5.08
		c0.74,1.5,1.75,2.69,3.05,3.55C414.5,84.39,415.96,84.82,417.59,84.82z"/>
	<path d="M437.56,86.99c-0.44,0-0.78-0.14-1.03-0.42c-0.25-0.28-0.38-0.61-0.38-0.99V64.52c0-0.38,0.13-0.71,0.4-0.99
		c0.27-0.28,0.6-0.42,1.01-0.42c0.41,0,0.74,0.14,1.01,0.42c0.27,0.28,0.4,0.61,0.4,0.99v7.05l-0.71,0.14
		c0.09-1.1,0.37-2.19,0.82-3.27c0.45-1.08,1.07-2.08,1.86-2.98c0.78-0.91,1.72-1.64,2.8-2.21c1.08-0.56,2.29-0.85,3.64-0.85
		c0.56,0,1.11,0.12,1.65,0.35c0.53,0.23,0.8,0.62,0.8,1.15c0,0.47-0.13,0.83-0.38,1.08c-0.25,0.25-0.55,0.38-0.89,0.38
		c-0.28,0-0.59-0.08-0.92-0.24c-0.33-0.16-0.76-0.23-1.29-0.23c-0.88,0-1.76,0.26-2.63,0.78c-0.88,0.52-1.68,1.21-2.4,2.09
		c-0.72,0.88-1.29,1.86-1.72,2.94s-0.63,2.17-0.63,3.27v11.61c0,0.38-0.14,0.71-0.42,0.99C438.27,86.84,437.94,86.99,437.56,86.99z"
		/>
	<path d="M452.89,83.18c-0.25-0.38-0.37-0.74-0.35-1.1c0.02-0.36,0.21-0.65,0.59-0.87c0.25-0.22,0.54-0.31,0.87-0.28
		c0.33,0.03,0.63,0.19,0.92,0.47c0.85,1.1,1.87,1.98,3.08,2.66c1.21,0.67,2.64,1.01,4.3,1.01c0.88,0,1.75-0.15,2.61-0.45
		c0.86-0.3,1.57-0.75,2.14-1.36c0.56-0.61,0.85-1.39,0.85-2.33c0-0.97-0.28-1.75-0.85-2.35c-0.56-0.59-1.29-1.07-2.19-1.41
		s-1.84-0.64-2.84-0.89c-1.07-0.28-2.1-0.6-3.1-0.96c-1-0.36-1.89-0.81-2.66-1.36c-0.77-0.55-1.39-1.21-1.86-2s-0.71-1.74-0.71-2.87
		c0-1.32,0.36-2.47,1.08-3.48c0.72-1,1.7-1.79,2.94-2.35c1.24-0.56,2.64-0.85,4.21-0.85c0.78,0,1.63,0.1,2.54,0.31
		c0.91,0.2,1.8,0.54,2.68,1.01c0.88,0.47,1.66,1.11,2.35,1.93c0.28,0.28,0.42,0.6,0.42,0.96c0,0.36-0.16,0.68-0.47,0.96
		c-0.25,0.19-0.54,0.28-0.87,0.28s-0.6-0.12-0.82-0.38c-0.75-0.85-1.65-1.49-2.68-1.93c-1.03-0.44-2.15-0.66-3.34-0.66
		c-0.91,0-1.76,0.15-2.56,0.45s-1.47,0.74-2,1.34c-0.53,0.6-0.8,1.38-0.8,2.35c0.06,0.91,0.38,1.64,0.96,2.21
		c0.58,0.56,1.35,1.03,2.3,1.41c0.96,0.38,2.03,0.72,3.22,1.03c1,0.25,1.97,0.55,2.89,0.89c0.92,0.34,1.74,0.78,2.44,1.29
		c0.71,0.52,1.27,1.17,1.69,1.95c0.42,0.78,0.63,1.77,0.63,2.96c0,1.38-0.38,2.57-1.15,3.57c-0.77,1-1.79,1.77-3.08,2.3
		c-1.29,0.53-2.71,0.8-4.28,0.8c-1.69,0-3.33-0.33-4.91-0.99C455.51,85.81,454.11,84.71,452.89,83.18z"/>
	<path d="M474.74,63.06h10.95c0.38,0,0.69,0.13,0.94,0.4c0.25,0.27,0.38,0.59,0.38,0.96c0,0.35-0.13,0.64-0.38,0.89
		c-0.25,0.25-0.56,0.38-0.94,0.38h-10.95c-0.38,0-0.7-0.13-0.96-0.4c-0.27-0.27-0.4-0.57-0.4-0.92c0-0.38,0.13-0.69,0.4-0.94
		C474.04,63.19,474.37,63.06,474.74,63.06z M479.58,56.44c0.41,0,0.74,0.14,1.01,0.42c0.27,0.28,0.4,0.61,0.4,0.99v23.59
		c0,0.88,0.12,1.54,0.35,1.97c0.23,0.44,0.54,0.73,0.92,0.87c0.38,0.14,0.75,0.21,1.13,0.21c0.25,0,0.48-0.04,0.68-0.12
		c0.2-0.08,0.43-0.12,0.68-0.12c0.28,0,0.52,0.11,0.73,0.33c0.2,0.22,0.31,0.5,0.31,0.85c0,0.44-0.25,0.81-0.75,1.1
		c-0.5,0.3-1.1,0.45-1.79,0.45c-0.28,0-0.71-0.02-1.27-0.07c-0.56-0.05-1.14-0.22-1.74-0.52c-0.6-0.3-1.09-0.82-1.48-1.57
		c-0.39-0.75-0.59-1.83-0.59-3.24V57.84c0-0.38,0.13-0.71,0.4-0.99C478.84,56.58,479.17,56.44,479.58,56.44z"/>
	<path d="M510.18,63.11c0.41,0,0.74,0.14,1.01,0.42c0.27,0.28,0.4,0.61,0.4,0.99v13.25c0,3.1-0.88,5.47-2.63,7.1
		c-1.75,1.63-4.12,2.44-7.1,2.44c-2.95,0-5.29-0.81-7.03-2.44c-1.74-1.63-2.61-4-2.61-7.1V64.52c0-0.38,0.13-0.71,0.4-0.99
		c0.27-0.28,0.6-0.42,1.01-0.42c0.41,0,0.74,0.14,1.01,0.42c0.27,0.28,0.4,0.61,0.4,0.99v13.25c0,2.26,0.6,3.97,1.81,5.15
		c1.21,1.17,2.87,1.76,5.01,1.76c2.16,0,3.85-0.59,5.08-1.76c1.22-1.18,1.83-2.89,1.83-5.15V64.52c0-0.38,0.12-0.71,0.38-0.99
		S509.74,63.11,510.18,63.11z"/>
	<path d="M518.4,62.45c0.25,0,0.5,0.08,0.75,0.24c0.25,0.16,0.44,0.39,0.56,0.7l8.23,19.55l-0.61,0.38l8.41-19.93
		c0.25-0.63,0.71-0.92,1.36-0.89c0.31,0,0.61,0.1,0.89,0.31c0.28,0.2,0.42,0.49,0.42,0.87c0,0.19-0.02,0.34-0.07,0.45
		c-0.05,0.11-0.09,0.23-0.12,0.35l-9.21,21.62c-0.25,0.56-0.67,0.86-1.27,0.89c-0.28,0.03-0.56-0.04-0.82-0.21
		c-0.27-0.17-0.46-0.4-0.59-0.68l-9.26-21.62c-0.03-0.06-0.06-0.16-0.09-0.28c-0.03-0.12-0.05-0.25-0.05-0.38
		c0-0.34,0.12-0.66,0.38-0.94C517.57,62.59,517.93,62.45,518.4,62.45z"/>
	<path d="M572.36,62.45c0.34,0,0.67,0.13,0.96,0.38c0.3,0.25,0.45,0.6,0.45,1.03c0,0.09-0.02,0.2-0.05,0.33
		c-0.03,0.12-0.06,0.22-0.09,0.28l-7.24,21.62c-0.13,0.28-0.32,0.51-0.59,0.68c-0.27,0.17-0.54,0.24-0.82,0.21
		c-0.56-0.03-0.99-0.33-1.27-0.89l-6.63-15.6l0.85,0.19l-5.88,15.42c-0.25,0.56-0.67,0.86-1.27,0.89c-0.28,0.03-0.56-0.04-0.85-0.21
		c-0.28-0.17-0.47-0.4-0.56-0.68l-7.43-21.62c-0.09-0.22-0.14-0.42-0.14-0.61c0-0.41,0.13-0.74,0.4-1.01
		c0.27-0.27,0.62-0.4,1.06-0.4c0.28,0,0.54,0.08,0.78,0.24c0.23,0.16,0.4,0.39,0.49,0.7l6.67,20.02l-0.89-0.05l6.06-15.28
		c0.25-0.59,0.69-0.89,1.32-0.89c0.31,0,0.58,0.08,0.8,0.24c0.22,0.16,0.39,0.38,0.52,0.66l6.44,15.32l-1.03,0.05l6.63-20.07
		C571.23,62.76,571.67,62.45,572.36,62.45z"/>
	<path d="M578.51,62.73c0.47,0,0.85,0.2,1.13,0.61l16.64,21.53c0.22,0.25,0.33,0.53,0.33,0.85c0,0.38-0.14,0.71-0.42,0.99
		c-0.28,0.28-0.61,0.42-0.99,0.42c-0.44,0-0.83-0.2-1.17-0.61l-16.69-21.53c-0.19-0.22-0.28-0.5-0.28-0.85
		c0-0.41,0.15-0.74,0.45-1.01C577.8,62.87,578.14,62.73,578.51,62.73z M578.51,87.13c-0.31,0-0.62-0.11-0.92-0.33
		c-0.3-0.22-0.45-0.53-0.45-0.94c0-0.34,0.11-0.64,0.33-0.89l7.94-10.2l1.55,2.26l-7.33,9.54
		C579.36,86.94,578.99,87.13,578.51,87.13z M595.2,62.73c0.41,0,0.73,0.12,0.96,0.35c0.24,0.23,0.35,0.52,0.35,0.87
		c0,0.16-0.02,0.31-0.07,0.47c-0.05,0.16-0.13,0.3-0.26,0.42l-7.94,10.43l-1.46-2.26l7.24-9.68
		C594.37,62.94,594.76,62.73,595.2,62.73z"/>
	<path d="M619.83,62.54c0.41,0,0.74,0.14,1.01,0.42c0.27,0.28,0.4,0.61,0.4,0.99v20.73c0,2.54-0.5,4.68-1.5,6.42
		c-1,1.74-2.35,3.05-4.04,3.95c-1.69,0.89-3.62,1.34-5.78,1.34c-1.35,0-2.59-0.15-3.74-0.45c-1.14-0.3-2.08-0.68-2.8-1.15
		c-0.38-0.22-0.66-0.49-0.85-0.8c-0.19-0.31-0.2-0.64-0.05-0.99c0.16-0.44,0.4-0.73,0.73-0.87c0.33-0.14,0.67-0.13,1.01,0.02
		c0.53,0.28,1.3,0.63,2.3,1.03c1,0.41,2.15,0.61,3.43,0.61c1.72,0,3.22-0.36,4.49-1.08c1.27-0.72,2.25-1.76,2.94-3.12
		s1.03-2.98,1.03-4.86v-3.38l0.33,1.13c-0.47,0.97-1.14,1.83-2,2.59c-0.86,0.75-1.85,1.34-2.96,1.76s-2.29,0.63-3.55,0.63
		c-1.88,0-3.44-0.38-4.68-1.15c-1.24-0.77-2.15-1.83-2.75-3.17c-0.6-1.35-0.89-2.93-0.89-4.75V63.96c0-0.38,0.12-0.71,0.38-0.99
		c0.25-0.28,0.59-0.42,1.03-0.42c0.41,0,0.74,0.14,1.01,0.42c0.27,0.28,0.4,0.61,0.4,0.99v14.01c0,2.19,0.48,3.89,1.43,5.08
		c0.96,1.19,2.51,1.79,4.68,1.79c1.35,0,2.58-0.32,3.71-0.96c1.13-0.64,2.05-1.49,2.77-2.54c0.72-1.05,1.08-2.17,1.08-3.36V63.96
		c0-0.38,0.13-0.71,0.4-0.99C619.08,62.69,619.42,62.54,619.83,62.54z"/>
	<path d="M643.66,84.35c0.38,0,0.7,0.13,0.96,0.4c0.27,0.27,0.4,0.57,0.4,0.92c0,0.38-0.13,0.69-0.4,0.94
		c-0.27,0.25-0.59,0.38-0.96,0.38h-15.28c-0.41,0-0.74-0.16-0.99-0.47c-0.25-0.31-0.38-0.61-0.38-0.89c0-0.19,0.03-0.37,0.09-0.54
		c0.06-0.17,0.17-0.35,0.33-0.54l14.24-19.69l0.19,0.42h-12.31c-0.38,0-0.7-0.13-0.96-0.4c-0.27-0.27-0.4-0.57-0.4-0.92
		c0-0.38,0.13-0.69,0.4-0.94c0.27-0.25,0.59-0.38,0.96-0.38h14.43c0.34,0,0.65,0.14,0.92,0.42c0.27,0.28,0.4,0.61,0.4,0.99
		c0,0.19-0.03,0.36-0.09,0.52c-0.06,0.16-0.16,0.33-0.28,0.52l-14.15,19.5l-0.56-0.23H643.66z"/>
	<path d="M674.21,87.46c-2.51,0-4.61-0.75-6.3-2.26c-1.69-1.5-2.96-3.53-3.81-6.09c-0.85-2.55-1.27-5.41-1.27-8.58
		c0-3.2,0.42-6.07,1.27-8.62c0.85-2.55,2.12-4.57,3.81-6.06c1.69-1.49,3.79-2.23,6.3-2.23c2.57,0,4.69,0.74,6.37,2.23
		s2.94,3.51,3.78,6.06c0.85,2.55,1.27,5.43,1.27,8.62c0,3.17-0.42,6.02-1.27,8.58c-0.85,2.55-2.11,4.58-3.78,6.09
		S676.78,87.46,674.21,87.46z M674.21,84.54c1.85,0,3.39-0.58,4.63-1.74c1.24-1.16,2.18-2.8,2.82-4.91s0.96-4.57,0.96-7.36
		c0-2.82-0.32-5.29-0.96-7.4s-1.58-3.75-2.82-4.91c-1.24-1.16-2.78-1.74-4.63-1.74c-1.82,0-3.34,0.58-4.58,1.74
		c-1.24,1.16-2.18,2.8-2.82,4.91c-0.64,2.12-0.96,4.58-0.96,7.4c0,2.79,0.32,5.24,0.96,7.36c0.64,2.12,1.58,3.75,2.82,4.91
		C670.86,83.96,672.39,84.54,674.21,84.54z"/>
	<path d="M698.83,86.99c-0.44,0-0.8-0.14-1.08-0.42c-0.28-0.28-0.42-0.61-0.42-0.99V57.28l0.52,0.47l-6.25,4.18
		c-0.25,0.19-0.52,0.28-0.8,0.28c-0.38,0-0.71-0.16-1.01-0.47c-0.3-0.31-0.45-0.66-0.45-1.03c0-0.5,0.25-0.89,0.75-1.17l7.85-5.22
		c0.19-0.12,0.38-0.2,0.59-0.24c0.2-0.03,0.38-0.03,0.54,0c0.41,0.03,0.72,0.18,0.94,0.45c0.22,0.27,0.33,0.59,0.33,0.96v30.08
		c0,0.38-0.14,0.71-0.42,0.99C699.63,86.84,699.27,86.99,698.83,86.99z"/>
	<path d="M727.88,84.26c0.38,0,0.7,0.13,0.96,0.4c0.27,0.27,0.4,0.59,0.4,0.96c0,0.41-0.13,0.74-0.4,0.99s-0.59,0.38-0.96,0.38
		h-17.62c-0.41,0-0.76-0.12-1.06-0.35c-0.3-0.24-0.45-0.59-0.45-1.06c0-0.34,0.12-0.67,0.38-0.99l10.86-11.98
		c1.72-1.88,3.02-3.61,3.88-5.19c0.86-1.58,1.29-3,1.29-4.25c0-2.07-0.63-3.73-1.88-4.98c-1.25-1.25-2.95-1.88-5.08-1.88
		c-0.97,0-1.93,0.2-2.89,0.61s-1.8,0.94-2.54,1.6c-0.74,0.66-1.31,1.41-1.72,2.26c-0.19,0.31-0.38,0.53-0.59,0.66
		c-0.2,0.13-0.43,0.19-0.68,0.19c-0.38,0-0.71-0.12-0.99-0.35c-0.28-0.24-0.42-0.52-0.42-0.87c0-0.22,0.05-0.44,0.16-0.66
		c0.11-0.22,0.27-0.47,0.49-0.75c0.56-0.97,1.35-1.86,2.35-2.68c1-0.81,2.12-1.46,3.36-1.95c1.24-0.49,2.45-0.73,3.64-0.73
		c2,0,3.74,0.38,5.19,1.15c1.46,0.77,2.58,1.85,3.38,3.24c0.8,1.39,1.2,3.05,1.2,4.96c0,1.63-0.51,3.41-1.53,5.33s-2.53,4-4.54,6.23
		l-9.17,10.29l-0.47-0.56H727.88z"/>
	<path d="M735.82,82.14c0.16,0,0.32,0.03,0.49,0.09c0.17,0.06,0.38,0.2,0.63,0.42c0.66,0.69,1.44,1.21,2.35,1.57
		c0.91,0.36,1.94,0.54,3.1,0.54c1.54,0,2.94-0.34,4.21-1.03c1.27-0.69,2.28-1.65,3.03-2.89c0.75-1.24,1.13-2.66,1.13-4.25
		c0-1.82-0.4-3.28-1.2-4.39c-0.8-1.11-1.82-1.94-3.05-2.49c-1.24-0.55-2.5-0.82-3.78-0.82c-0.34,0-0.68,0.02-1.01,0.07
		c-0.33,0.05-0.63,0.1-0.92,0.16c-0.28,0.06-0.5,0.09-0.66,0.09c-0.41,0-0.72-0.13-0.94-0.4c-0.22-0.27-0.33-0.6-0.33-1.01
		c0-0.22,0.05-0.42,0.14-0.59c0.09-0.17,0.22-0.37,0.38-0.59l9.54-10.39L749.5,57h-14.24c-0.38,0-0.7-0.13-0.96-0.4
		c-0.27-0.27-0.4-0.59-0.4-0.96s0.13-0.69,0.4-0.94c0.27-0.25,0.59-0.38,0.96-0.38h15.79c0.53,0,0.91,0.16,1.13,0.49
		c0.22,0.33,0.33,0.65,0.33,0.96c0,0.19-0.05,0.37-0.14,0.54c-0.09,0.17-0.22,0.35-0.38,0.54l-9.54,10.39l-1.03-0.61
		c0.09-0.09,0.42-0.2,0.96-0.31c0.55-0.11,0.98-0.16,1.29-0.16c1.72,0,3.34,0.41,4.86,1.22c1.52,0.82,2.76,1.98,3.71,3.5
		c0.96,1.52,1.43,3.39,1.43,5.62c0,2.19-0.52,4.11-1.55,5.76c-1.03,1.64-2.43,2.92-4.18,3.83c-1.75,0.91-3.7,1.36-5.83,1.36
		c-1.29,0-2.55-0.22-3.81-0.66s-2.35-1.1-3.29-1.97c-0.22-0.19-0.38-0.38-0.47-0.56c-0.09-0.19-0.14-0.38-0.14-0.56
		c0-0.38,0.13-0.73,0.4-1.06C735.08,82.31,735.41,82.14,735.82,82.14z"/>
	<path d="M773.51,86.99c-0.41,0-0.74-0.14-0.99-0.42c-0.25-0.28-0.38-0.61-0.38-0.99V57.99l0.61,0.38L760.4,74.72l-0.14-0.52h18.05
		c0.38,0,0.7,0.13,0.96,0.38c0.27,0.25,0.4,0.56,0.4,0.94c0,0.38-0.13,0.69-0.4,0.94c-0.27,0.25-0.59,0.38-0.96,0.38h-19.97
		c-0.38,0-0.71-0.15-0.99-0.45s-0.42-0.63-0.42-1.01c0-0.34,0.11-0.66,0.33-0.94l15.13-19.79c0.16-0.22,0.35-0.37,0.59-0.45
		c0.23-0.08,0.43-0.12,0.59-0.12c0.41,0,0.74,0.14,1.01,0.42c0.27,0.28,0.4,0.61,0.4,0.99v30.08c0,0.38-0.14,0.71-0.42,0.99
		C774.27,86.84,773.92,86.99,773.51,86.99z"/>
	<path d="M792.41,87.08c-1.29,0-2.58-0.21-3.88-0.63s-2.45-1.06-3.45-1.9c-0.19-0.16-0.34-0.34-0.45-0.56
		c-0.11-0.22-0.17-0.44-0.17-0.66c0-0.31,0.12-0.62,0.38-0.92c0.25-0.3,0.58-0.45,0.99-0.45c0.34,0,0.69,0.14,1.03,0.42
		c0.81,0.63,1.7,1.11,2.66,1.46c0.96,0.35,1.92,0.52,2.89,0.52c1.85,0,3.46-0.35,4.84-1.06s2.44-1.71,3.2-3.01
		c0.75-1.3,1.13-2.81,1.13-4.54c0-1.6-0.35-2.98-1.03-4.16c-0.69-1.17-1.67-2.1-2.94-2.77c-1.27-0.67-2.77-1.01-4.49-1.01
		c-1.13,0-2.15,0.17-3.08,0.52c-0.92,0.34-1.72,0.7-2.4,1.06s-1.21,0.54-1.62,0.54c-0.38,0-0.68-0.09-0.92-0.28
		c-0.24-0.19-0.39-0.42-0.47-0.71c-0.08-0.28-0.09-0.58-0.02-0.89l2.02-12.55c0.03-0.28,0.18-0.54,0.45-0.78s0.6-0.35,1.01-0.35
		h14.15c0.38,0,0.7,0.13,0.96,0.4c0.27,0.27,0.4,0.59,0.4,0.96c0,0.41-0.13,0.74-0.4,1.01c-0.27,0.27-0.59,0.4-0.96,0.4h-13.49
		l0.42-0.42l-1.93,11.14l-0.85-0.61c0.41-0.31,0.99-0.63,1.76-0.94c0.77-0.31,1.63-0.59,2.58-0.82c0.96-0.23,1.97-0.35,3.03-0.35
		c2.04,0,3.85,0.45,5.45,1.34c1.6,0.89,2.86,2.13,3.78,3.71c0.92,1.58,1.39,3.41,1.39,5.48c0,2.29-0.49,4.29-1.48,5.99
		c-0.99,1.71-2.37,3.04-4.16,4C796.97,86.6,794.85,87.08,792.41,87.08z"/>
	<path d="M820.51,87.46c-1.82,0-3.41-0.33-4.77-0.99c-1.36-0.66-2.49-1.54-3.38-2.66c-0.89-1.11-1.55-2.37-1.97-3.78
		s-0.63-2.85-0.63-4.32c0-1.5,0.19-3.12,0.56-4.86s0.96-3.5,1.74-5.29c0.78-1.79,1.75-3.48,2.89-5.08c1.14-1.6,2.47-3.03,3.99-4.3
		c1.52-1.27,3.24-2.26,5.15-2.98c0.22-0.06,0.41-0.09,0.56-0.09c0.41,0,0.76,0.11,1.06,0.33c0.3,0.22,0.45,0.6,0.45,1.13
		c0,0.31-0.1,0.59-0.31,0.82c-0.2,0.23-0.48,0.42-0.82,0.54c-1.32,0.56-2.62,1.36-3.9,2.4c-1.29,1.03-2.48,2.22-3.57,3.57
		c-1.1,1.35-2.03,2.8-2.8,4.35c-0.77,1.55-1.31,3.13-1.62,4.72l-1.03,0.61c0.56-1.03,1.29-1.95,2.19-2.75
		c0.89-0.8,1.92-1.44,3.08-1.93c1.16-0.49,2.41-0.73,3.76-0.73c1.41,0,2.71,0.3,3.9,0.89c1.19,0.6,2.22,1.4,3.08,2.42
		c0.86,1.02,1.54,2.17,2.02,3.45c0.49,1.29,0.73,2.62,0.73,4c0,1.85-0.45,3.57-1.34,5.17c-0.89,1.6-2.12,2.89-3.67,3.88
		S822.52,87.46,820.51,87.46z M820.47,84.73c1.44,0,2.73-0.33,3.85-0.99s2.01-1.57,2.66-2.75c0.64-1.17,0.96-2.53,0.96-4.07
		c0-1.41-0.27-2.72-0.82-3.92c-0.55-1.21-1.36-2.19-2.44-2.96s-2.42-1.15-4.02-1.15c-1.66,0-3.09,0.38-4.3,1.13
		c-1.21,0.75-2.13,1.75-2.77,2.98c-0.64,1.24-0.96,2.59-0.96,4.07c0,1.32,0.31,2.56,0.94,3.74c0.63,1.17,1.53,2.12,2.7,2.84
		S818.84,84.73,820.47,84.73z"/>
	<path d="M840.68,87.13c-0.38,0-0.72-0.12-1.03-0.38c-0.31-0.25-0.47-0.56-0.47-0.94c0-0.22,0.05-0.45,0.14-0.71l12.5-28.72
		l0.52,0.66h-15.89c-0.38,0-0.7-0.13-0.96-0.4c-0.27-0.27-0.4-0.59-0.4-0.96c0-0.41,0.13-0.74,0.4-0.99
		c0.27-0.25,0.59-0.38,0.96-0.38h17.25c0.47,0,0.81,0.12,1.03,0.38c0.22,0.25,0.33,0.56,0.33,0.94c0,0.25-0.05,0.49-0.14,0.71
		l-12.93,29.85c-0.09,0.28-0.27,0.51-0.52,0.68C841.22,87.04,840.96,87.13,840.68,87.13z"/>
	<path d="M873.53,70.44l-0.14-0.42c1.07,0.41,2.04,1.01,2.91,1.81c0.88,0.8,1.58,1.74,2.12,2.82c0.53,1.08,0.8,2.26,0.8,3.55
		c0,1.69-0.45,3.23-1.34,4.61c-0.89,1.38-2.11,2.48-3.64,3.29c-1.54,0.82-3.24,1.22-5.12,1.22c-1.91,0-3.63-0.41-5.15-1.22
		c-1.52-0.81-2.73-1.91-3.62-3.29c-0.89-1.38-1.34-2.91-1.34-4.61c0-1.38,0.27-2.61,0.82-3.69s1.27-2,2.16-2.75
		c0.89-0.75,1.83-1.33,2.8-1.74l-0.14,0.47c-0.85-0.41-1.64-0.96-2.37-1.67c-0.74-0.71-1.34-1.55-1.81-2.54
		c-0.47-0.99-0.71-2.08-0.71-3.27c0-1.69,0.42-3.21,1.25-4.56c0.83-1.35,1.96-2.41,3.38-3.2c1.42-0.78,3-1.17,4.72-1.17
		c1.72,0,3.28,0.39,4.68,1.17c1.39,0.78,2.51,1.85,3.34,3.2c0.83,1.35,1.25,2.87,1.25,4.56c0,1.22-0.24,2.32-0.71,3.29
		c-0.47,0.97-1.08,1.81-1.83,2.51S874.31,70.07,873.53,70.44z M869.11,84.63c2.13,0,3.86-0.61,5.19-1.83c1.33-1.22,2-2.76,2-4.61
		c0-1.25-0.33-2.38-0.99-3.38c-0.66-1-1.54-1.79-2.63-2.35c-1.1-0.56-2.29-0.85-3.57-0.85c-1.29,0-2.48,0.28-3.57,0.85
		c-1.1,0.56-1.97,1.35-2.63,2.35c-0.66,1-0.99,2.13-0.99,3.38c0,1.85,0.66,3.38,1.97,4.61C865.21,84.02,866.95,84.63,869.11,84.63z
		 M862.67,63.01c0,1.25,0.3,2.35,0.89,3.29c0.6,0.94,1.38,1.68,2.35,2.21c0.97,0.53,2.04,0.8,3.2,0.8c1.13,0,2.18-0.27,3.15-0.8
		c0.97-0.53,1.75-1.27,2.33-2.21c0.58-0.94,0.87-2.04,0.87-3.29c0-1.85-0.6-3.35-1.79-4.51c-1.19-1.16-2.71-1.74-4.56-1.74
		c-1.91,0-3.46,0.58-4.65,1.74C863.27,59.66,862.67,61.17,862.67,63.01z"/>
	<path d="M894.82,53.57c1.85,0,3.46,0.33,4.82,0.99c1.36,0.66,2.48,1.54,3.36,2.66c0.88,1.11,1.53,2.37,1.97,3.78
		c0.44,1.41,0.66,2.85,0.66,4.32c0,1.5-0.2,3.11-0.59,4.82s-0.97,3.43-1.74,5.17c-0.77,1.74-1.72,3.39-2.87,4.96
		c-1.14,1.57-2.48,2.98-4.02,4.23c-1.54,1.25-3.24,2.23-5.12,2.91c-0.25,0.06-0.46,0.09-0.61,0.09c-0.38,0-0.71-0.13-1.01-0.4
		s-0.45-0.62-0.45-1.06c0-0.31,0.09-0.59,0.28-0.82s0.47-0.42,0.85-0.54c1.79-0.75,3.51-1.87,5.17-3.36
		c1.66-1.49,3.09-3.21,4.3-5.17c1.21-1.96,2.01-3.99,2.42-6.09l0.99-0.61c-0.53,1-1.25,1.91-2.16,2.73
		c-0.91,0.82-1.93,1.45-3.08,1.9c-1.14,0.45-2.39,0.68-3.74,0.68c-2.01,0-3.74-0.49-5.19-1.48c-1.46-0.99-2.58-2.29-3.36-3.92
		c-0.78-1.63-1.18-3.38-1.18-5.26c0-1.85,0.45-3.57,1.34-5.17c0.89-1.6,2.12-2.89,3.67-3.88C891.08,54.06,892.85,53.57,894.82,53.57
		z M894.91,56.29c-1.47,0-2.77,0.33-3.9,0.99s-2.01,1.57-2.66,2.75c-0.64,1.18-0.96,2.53-0.96,4.07c0,1.38,0.27,2.68,0.82,3.9
		s1.37,2.2,2.47,2.94c1.1,0.74,2.43,1.1,4,1.1c1.69,0,3.13-0.37,4.32-1.1c1.19-0.74,2.12-1.72,2.77-2.94
		c0.66-1.22,0.99-2.57,0.99-4.04c0-1.35-0.31-2.6-0.94-3.76c-0.63-1.16-1.52-2.1-2.68-2.82C897.98,56.65,896.57,56.29,894.91,56.29z
		"/>
</g>
</svg>
